<svg width="98" height="104" viewBox="0 0 98 104" fill="none" xmlns="http://www.w3.org/2000/svg">
<rect width="98" height="15" rx="2" fill="#595959"/>
<rect x="1" y="1" width="96" height="102" rx="1" stroke="#2A2A2A" stroke-width="2"/>
<circle cx="10" cy="8" r="2" fill="white"/>
<circle cx="16" cy="8" r="2" fill="white"/>
<circle cx="22" cy="8" r="2" fill="white"/>
<circle cx="49.5" cy="41.5" r="17.5" stroke="#2A2A2A" stroke-width="2"/>
<path d="M41 49.68C41 46.365 45.42 46.365 47.63 44.155C48.735 43.05 45.42 43.05 45.42 37.525C45.42 33.842 46.893 32 49.84 32C52.787 32 54.26 33.842 54.26 37.525C54.26 43.05 50.945 43.05 52.05 44.155C54.26 46.365 58.68 46.365 58.68 49.68" stroke="#ED0474" stroke-width="2" stroke-linecap="round"/>
<rect x="10" y="73" width="32" height="2" fill="#868686"/>
<rect x="56" y="73" width="32" height="2" fill="#868686"/>
<rect x="10" y="81" width="32" height="2" fill="#868686"/>
<rect x="56" y="81" width="32" height="2" fill="#868686"/>
<rect x="10" y="89" width="32" height="2" fill="#868686"/>
<rect x="56" y="89" width="32" height="2" fill="#868686"/>
</svg>
