<svg width="592" height="268" viewBox="0 0 592 268" fill="none" xmlns="http://www.w3.org/2000/svg">
<g filter="url(#filter0_d_158_340)">
<path d="M306.418 207.585V124.329H285.723V103.515H306.418V82.7006H327.114V103.515H368.506V124.329H327.114V207.585H306.418ZM327.114 82.7006V61.8866H368.506V82.7006H327.114Z" fill="#FF008F"/>
</g>
<g filter="url(#filter1_d_158_340)">
<path d="M492.682 207.585V186.771H513.378V207.585H492.682ZM471.987 186.771V124.329H451.291V103.515H471.987V61.8866H492.682V103.515H513.378V124.329H492.682V186.771H471.987Z" fill="#FF008F"/>
</g>
<g filter="url(#filter2_d_158_340)">
<path d="M400.35 207.585V103.515H421.045V207.585H400.35ZM400.35 82.7006V61.8866H421.045V82.7006H400.35Z" fill="#FF008F"/>
</g>
<g filter="url(#filter3_d_158_340)">
<path d="M136.986 192.279H196.149V212H136.986V192.279ZM136.986 192.279H117.266V113.396H136.986V192.279ZM215.869 192.279H196.149V113.396H215.869V192.279Z" fill="#FF008F"/>
</g>
<g filter="url(#filter4_d_158_340)">
<path d="M230.415 80.4302H255.604V178.151H230.415V80.4302ZM79 178.151V80.4302H104.189V56H154.566V80.4302H104.189V178.151H79ZM154.566 80.4302H179.755V178.151H154.566V80.4302ZM179.755 80.4302V56H230.415V80.4302H179.755Z" fill="#FF008F"/>
</g>
<defs>
<filter id="filter0_d_158_340" x="285.723" y="61.8866" width="88.7832" height="151.698" filterUnits="userSpaceOnUse" color-interpolation-filters="sRGB">
<feFlood flood-opacity="0" result="BackgroundImageFix"/>
<feColorMatrix in="SourceAlpha" type="matrix" values="0 0 0 0 0 0 0 0 0 0 0 0 0 0 0 0 0 0 127 0" result="hardAlpha"/>
<feOffset dx="6" dy="6"/>
<feComposite in2="hardAlpha" operator="out"/>
<feColorMatrix type="matrix" values="0 0 0 0 1 0 0 0 0 1 0 0 0 0 1 0 0 0 1 0"/>
<feBlend mode="normal" in2="BackgroundImageFix" result="effect1_dropShadow_158_340"/>
<feBlend mode="normal" in="SourceGraphic" in2="effect1_dropShadow_158_340" result="shape"/>
</filter>
<filter id="filter1_d_158_340" x="451.291" y="61.8866" width="68.0879" height="151.698" filterUnits="userSpaceOnUse" color-interpolation-filters="sRGB">
<feFlood flood-opacity="0" result="BackgroundImageFix"/>
<feColorMatrix in="SourceAlpha" type="matrix" values="0 0 0 0 0 0 0 0 0 0 0 0 0 0 0 0 0 0 127 0" result="hardAlpha"/>
<feOffset dx="6" dy="6"/>
<feComposite in2="hardAlpha" operator="out"/>
<feColorMatrix type="matrix" values="0 0 0 0 1 0 0 0 0 1 0 0 0 0 1 0 0 0 1 0"/>
<feBlend mode="normal" in2="BackgroundImageFix" result="effect1_dropShadow_158_340"/>
<feBlend mode="normal" in="SourceGraphic" in2="effect1_dropShadow_158_340" result="shape"/>
</filter>
<filter id="filter2_d_158_340" x="400.35" y="61.8866" width="26.6953" height="151.698" filterUnits="userSpaceOnUse" color-interpolation-filters="sRGB">
<feFlood flood-opacity="0" result="BackgroundImageFix"/>
<feColorMatrix in="SourceAlpha" type="matrix" values="0 0 0 0 0 0 0 0 0 0 0 0 0 0 0 0 0 0 127 0" result="hardAlpha"/>
<feOffset dx="6" dy="6"/>
<feComposite in2="hardAlpha" operator="out"/>
<feColorMatrix type="matrix" values="0 0 0 0 1 0 0 0 0 1 0 0 0 0 1 0 0 0 1 0"/>
<feBlend mode="normal" in2="BackgroundImageFix" result="effect1_dropShadow_158_340"/>
<feBlend mode="normal" in="SourceGraphic" in2="effect1_dropShadow_158_340" result="shape"/>
</filter>
<filter id="filter3_d_158_340" x="117.266" y="113.396" width="104.604" height="104.604" filterUnits="userSpaceOnUse" color-interpolation-filters="sRGB">
<feFlood flood-opacity="0" result="BackgroundImageFix"/>
<feColorMatrix in="SourceAlpha" type="matrix" values="0 0 0 0 0 0 0 0 0 0 0 0 0 0 0 0 0 0 127 0" result="hardAlpha"/>
<feOffset dx="6" dy="6"/>
<feComposite in2="hardAlpha" operator="out"/>
<feColorMatrix type="matrix" values="0 0 0 0 1 0 0 0 0 1 0 0 0 0 1 0 0 0 1 0"/>
<feBlend mode="normal" in2="BackgroundImageFix" result="effect1_dropShadow_158_340"/>
<feBlend mode="normal" in="SourceGraphic" in2="effect1_dropShadow_158_340" result="shape"/>
</filter>
<filter id="filter4_d_158_340" x="79" y="56" width="182.604" height="128.151" filterUnits="userSpaceOnUse" color-interpolation-filters="sRGB">
<feFlood flood-opacity="0" result="BackgroundImageFix"/>
<feColorMatrix in="SourceAlpha" type="matrix" values="0 0 0 0 0 0 0 0 0 0 0 0 0 0 0 0 0 0 127 0" result="hardAlpha"/>
<feOffset dx="6" dy="6"/>
<feComposite in2="hardAlpha" operator="out"/>
<feColorMatrix type="matrix" values="0 0 0 0 1 0 0 0 0 1 0 0 0 0 1 0 0 0 1 0"/>
<feBlend mode="normal" in2="BackgroundImageFix" result="effect1_dropShadow_158_340"/>
<feBlend mode="normal" in="SourceGraphic" in2="effect1_dropShadow_158_340" result="shape"/>
</filter>
</defs>
</svg>
