<svg width="32" height="32" viewBox="0 0 32 32" fill="none" xmlns="http://www.w3.org/2000/svg">
<circle cx="16" cy="16" r="16" fill="#ED0474"/>
<path d="M14.04 9H17.76L17.14 18.14H14.66L14.04 9ZM15.9 23.16C15.3533 23.16 14.8933 22.9867 14.52 22.64C14.16 22.28 13.98 21.8467 13.98 21.34C13.98 20.8333 14.16 20.4133 14.52 20.08C14.88 19.7333 15.34 19.56 15.9 19.56C16.46 19.56 16.92 19.7333 17.28 20.08C17.64 20.4133 17.82 20.8333 17.82 21.34C17.82 21.8467 17.6333 22.28 17.26 22.64C16.9 22.9867 16.4467 23.16 15.9 23.16Z" fill="white"/>
</svg>
