<svg width="15" height="15" viewBox="0 0 15 15" fill="none" xmlns="http://www.w3.org/2000/svg">
<path fill-rule="evenodd" clip-rule="evenodd" d="M8.1918 1.41498C8.1918 0.978686 7.83811 0.625 7.40182 0.625C6.96553 0.625 6.61184 0.978686 6.61184 1.41498V6.94485H1.08197C0.645679 6.94485 0.291992 7.29853 0.291992 7.73483C0.291992 8.17112 0.645678 8.52481 1.08197 8.52481H6.61184V14.0547C6.61184 14.491 6.96553 14.8447 7.40182 14.8447C7.83811 14.8447 8.1918 14.491 8.1918 14.0547V8.52481H13.7217C14.158 8.52481 14.5116 8.17112 14.5116 7.73483C14.5116 7.29853 14.158 6.94485 13.7217 6.94485H8.1918V1.41498Z" fill="white"/>
</svg>
