<svg width="98" height="104" viewBox="0 0 80 88" fill="none" xmlns="http://www.w3.org/2000/svg">
<rect x="1" y="5.88867" width="77.8519" height="75.4074" rx="1" stroke="#2A2A2A" stroke-width="2"/>
<circle cx="41.5558" cy="44.0001" r="23.4444" stroke="#2A2A2A" stroke-width="2"/>
<circle cx="41.5558" cy="44.0001" r="20.4352" stroke="#2A2A2A" stroke-width="1.5"/>
<path d="M36.6665 67.6299C24.5162 67.6299 14.6665 57.0505 14.6665 44.0002C14.6665 30.95 24.5162 20.3706 36.6665 20.3706" stroke="#2A2A2A" stroke-width="2"/>
<g clip-path="url(#clip0_206_245)">
<path fill-rule="evenodd" clip-rule="evenodd" d="M53.0295 38.524C54.2766 38.8679 55.3883 39.5858 56.2147 40.5811L54.1727 42.2767C53.693 41.6991 53.0478 41.2824 52.3239 41.0828C51.6001 40.8832 50.8324 40.9103 50.1245 41.1605C49.4166 41.4107 48.8024 41.8719 48.3647 42.482C48.3325 42.5267 48.3015 42.572 48.2716 42.618V39.0948C48.5802 38.923 48.904 38.7766 49.2401 38.6579C50.4598 38.2268 51.7824 38.1801 53.0295 38.524ZM47.665 39.479C47.1063 39.8791 46.6132 40.3698 46.208 40.9346C45.4539 41.9858 45.0401 43.2428 45.0226 44.5363C45.005 45.8299 45.3843 47.0977 46.1096 48.1689C46.8349 49.2401 47.8711 50.0632 49.0787 50.5273C50.2862 50.9913 51.607 51.074 52.863 50.7642C54.119 50.4543 55.2498 49.7668 56.103 48.7945L54.1078 47.0439C53.6126 47.6083 52.9563 48.0073 52.2273 48.1871C51.4983 48.3669 50.7317 48.319 50.0308 48.0497C49.3299 47.7803 48.7285 47.3025 48.3075 46.6808C47.8866 46.0591 47.6548 45.3298 47.665 44.579C47.6659 44.5088 47.665 44.4274 47.665 44.3624V39.479Z" fill="#ED0474"/>
<path fill-rule="evenodd" clip-rule="evenodd" d="M29.5532 44.8392V38.6865H26.9102V44.8392C26.9102 48.0098 29.4805 50.5802 32.6512 50.5802C33.7738 50.5802 34.8211 50.2579 35.7058 49.701V50.5585H38.3489L38.3922 45.5324C38.3922 45.2941 38.3922 45.0792 38.3922 44.8392V42.8925L40.2567 45.8118L40.2553 45.814L40.3018 45.8825L41.6418 47.9805H41.6851H41.7285L43.0684 45.8825L43.115 45.814L43.1136 45.8118L45.0214 42.8247V44.4059H47.6645V38.6865H45.0214H44.7181L41.6851 43.5305L38.6522 38.6865H38.3922H38.3489H35.7492H35.7058V45.3584C35.4588 46.8222 34.1852 47.9371 32.6512 47.9371C30.9402 47.9371 29.5532 46.5501 29.5532 44.8392Z" fill="#2A2A2A"/>
</g>
<line x1="35.8521" y1="20.1851" x2="42.3706" y2="20.1851" stroke="#2A2A2A" stroke-width="2"/>
<line x1="22.8149" y1="25.0742" x2="26.889" y2="25.0742" stroke="#2A2A2A" stroke-width="2"/>
<line x1="18.7407" y1="29.9629" x2="22.8148" y2="29.9629" stroke="#2A2A2A" stroke-width="2"/>
<line x1="16.2964" y1="34.8521" x2="19.5556" y2="34.8521" stroke="#2A2A2A" stroke-width="2"/>
<line x1="14.6665" y1="39.7407" x2="18.7406" y2="39.7407" stroke="#2A2A2A" stroke-width="2"/>
<line x1="14.6665" y1="45.4443" x2="17.9258" y2="45.4443" stroke="#2A2A2A" stroke-width="2"/>
<line x1="15.4814" y1="51.1479" x2="18.7407" y2="51.1479" stroke="#2A2A2A" stroke-width="2"/>
<line x1="17.9258" y1="56.8521" x2="21.9999" y2="56.8521" stroke="#2A2A2A" stroke-width="2"/>
<line x1="22" y1="61.7407" x2="26.0741" y2="61.7407" stroke="#2A2A2A" stroke-width="2"/>
<line x1="35.8521" y1="67.4443" x2="41.5558" y2="67.4443" stroke="#2A2A2A" stroke-width="2"/>
<line x1="41.7407" y1="-4.37114e-08" x2="41.7407" y2="4.88889" stroke="#2A2A2A" stroke-width="2"/>
<line x1="41.7407" y1="80.6665" x2="41.7407" y2="87.9998" stroke="#2A2A2A" stroke-width="2"/>
<defs>
<clipPath id="clip0_206_245">
<rect width="29.3333" height="12.6519" fill="white" transform="translate(26.8887 38.2964)"/>
</clipPath>
</defs>
</svg>
