<svg width="345" height="351" viewBox="0 0 345 351" fill="none" xmlns="http://www.w3.org/2000/svg">
<path fill-rule="evenodd" clip-rule="evenodd" d="M176.88 134.579L176.482 134.814L176.076 134.593L114.524 101.113L114.099 100.881V100.396L114.099 76.9694H65.8527C63.9561 76.9694 62.4186 78.5069 62.4186 80.4035V122.775L62.665 122.646L63.0508 122.865L119.894 155.003L120.308 155.237V155.712V223.043V223.509L119.906 223.745L63.0633 257.226L62.6655 257.46L62.2599 257.24L0.708057 223.759L0.282322 223.528L0.282321 223.043L0.282227 155.712V155.218L0.720184 154.99L61.4374 123.287V80.4035C61.4374 77.965 63.4142 75.9883 65.8527 75.9883H114.099L114.099 33.0659V32.5718L114.537 32.3432L176.089 0.205124L176.481 0L176.867 0.218124L233.71 32.3562L234.124 32.5903V33.0659V75.9883H281.711C284.15 75.9883 286.126 77.965 286.126 80.4035V123.757L286.372 123.629L286.758 123.847L343.601 155.985L344.015 156.219V156.695V224.025V224.491L343.613 224.728L286.77 258.208L286.373 258.443L285.967 258.222L224.415 224.742L223.989 224.51V224.025L223.989 156.695L223.989 156.201L224.427 155.972L285.145 124.269V80.4035C285.145 78.5069 283.608 76.9694 281.711 76.9694H234.124V100.396V100.862L233.723 101.099L176.88 134.579ZM232.494 75.9883H207.632V76.9694H232.494V99.9304L177.281 132.45V64.6964L232.494 34.4424V75.9883ZM285.145 126.109L226.588 156.683L286.341 186.921L341.523 156.684L286.341 125.485L286.126 125.597V154.482H285.145V126.109ZM115.729 76.9694H140.913V75.9883H115.729L115.729 34.3923L175.651 64.7147V132.505L115.729 99.9118L115.729 76.9694ZM61.4374 125.127L2.88084 155.701L62.6344 185.939L117.816 155.701L62.634 124.502L62.4186 124.615V154.482H61.4374V125.127ZM176.451 63.2921L231.633 33.0548L176.45 1.8557L116.697 33.0546L176.451 63.2921ZM1.91295 222.558L1.91286 157.039L61.8342 187.361V255.152L1.91295 222.558ZM63.4648 255.097V187.343L118.677 157.089V222.577L63.4648 255.097ZM225.62 223.541L225.62 158.021L285.541 188.344V256.134L225.62 223.541ZM287.172 256.079V188.325L342.384 158.071V223.559L287.172 256.079ZM176.482 350.671L176.88 350.437L233.723 316.956L234.124 316.72V316.254V300.677H281.711C284.15 300.677 286.126 298.7 286.126 296.262V263.761H285.145V296.262C285.145 298.159 283.608 299.696 281.711 299.696H234.124V248.923V248.448L233.71 248.214L176.867 216.076L176.481 215.857L176.089 216.063L114.537 248.201L114.099 248.429V248.923L114.099 299.696H65.8527C63.9561 299.696 62.4186 298.159 62.4186 296.262V263.761H61.4374V296.262C61.4374 298.7 63.4142 300.677 65.8527 300.677H114.099L114.099 316.254V316.738L114.524 316.97L176.076 350.451L176.482 350.671ZM115.729 300.677L115.729 315.769L175.651 348.363V280.572L115.729 250.25L115.729 299.696H140.913V300.677H115.729ZM232.494 299.696V250.3L177.281 280.554V348.308L232.494 315.788V300.677H207.632V299.696H232.494ZM231.633 248.912L176.451 279.15L116.697 248.912L176.45 217.713L231.633 248.912Z" fill="#2A2A2A"/>
</svg>
