<svg width="608" height="253" viewBox="0 0 608 253" fill="none" xmlns="http://www.w3.org/2000/svg">
<path fill-rule="evenodd" clip-rule="evenodd" d="M0 252.964C23.3855 244.56 47.157 233.329 71.8208 221.676C82.0554 216.841 92.4437 211.933 103.022 207.124C145.994 187.589 192.269 169.598 244.693 164.285C316.754 156.981 371.141 138.979 402.997 110.619C404.912 108.915 406.9 107.135 408.961 105.291L408.978 105.276L408.978 105.276C429.009 87.3504 455.833 63.3448 487.619 43.077C522.682 20.7191 563.648 3.0002 608 3.00004L608 0C562.852 0.000208324 521.318 18.0309 486.006 40.5474C454.002 60.9545 427 85.1205 406.982 103.036L406.981 103.037L406.981 103.037L406.952 103.063L406.937 103.077C404.884 104.913 402.906 106.684 401.003 108.378C369.859 136.103 316.247 154.017 244.391 161.3C191.474 166.663 144.841 184.818 101.78 204.393C91.0948 209.251 80.6396 214.19 70.3667 219.043L70.3645 219.044L70.3634 219.045C46.1012 230.507 22.8566 241.488 0 249.776V252.964Z" fill="#ED0474"/>
</svg>
