<svg width="805" height="268" viewBox="0 0 805 268" fill="none" xmlns="http://www.w3.org/2000/svg">
<path fill-rule="evenodd" clip-rule="evenodd" d="M691.555 36.743C726.431 19.4073 763.738 4.15993 805 0V3.01524C764.401 7.16371 727.57 22.1911 692.891 39.4294C680.768 45.455 668.992 51.7063 657.405 57.8574L657.404 57.8577L657.402 57.8586L657.401 57.8595C648.418 62.6277 639.549 67.3357 630.721 71.8315C610.597 82.0794 590.9 91.1059 571.301 96.7791C540.63 105.657 512.339 110.345 483.163 115.179C475.216 116.496 467.204 117.824 459.061 119.25C420.994 125.916 379.896 134.754 328.772 154.704C283.57 172.344 257.048 191.592 233.189 208.907C230.105 211.145 227.066 213.351 224.036 215.517C197.491 234.495 171.77 250.345 123.953 257.641C88.9839 262.977 61.2712 264.396 35.8793 265.696H35.8789C26.7217 266.165 17.8663 266.618 9.08118 267.234C6.05075 267.447 3.02694 267.679 0 267.937V264.926C2.95746 264.675 5.9116 264.449 8.87131 264.242C17.743 263.619 26.65 263.163 35.8382 262.693C61.1947 261.395 88.6926 259.987 123.5 254.675C170.683 247.476 195.962 231.9 222.291 213.076C225.309 210.919 228.342 208.718 231.423 206.481C255.303 189.149 282.106 169.695 327.681 151.91C379.057 131.861 420.367 122.98 458.543 116.295C466.742 114.859 474.789 113.525 482.756 112.205L482.76 112.204C511.909 107.374 539.982 102.722 570.467 93.8974C589.789 88.3045 609.283 79.3816 629.359 69.1582C638.062 64.7265 646.916 60.0275 655.909 55.2544L655.91 55.2537C667.566 49.0678 679.456 42.7574 691.555 36.743Z" fill="#ED0474"/>
</svg>
