<svg width="41" height="37" viewBox="0 0 41 37" fill="none" xmlns="http://www.w3.org/2000/svg">
<path fill-rule="evenodd" clip-rule="evenodd" d="M24.5589 0.776855L31.8766 3.02846C32.7874 1.79756 34.2498 0.999512 35.8986 0.999512C38.66 0.999512 40.8986 3.23809 40.8986 5.99951C40.8986 8.76094 38.66 10.9995 35.8986 10.9995C33.1371 10.9995 30.8986 8.76094 30.8986 5.99951C30.8986 5.88559 30.9024 5.77256 30.9099 5.66054L26.2382 4.22309L23.5965 11.1264C25.8779 11.3576 28.0221 11.8978 29.9454 12.6863C30.4514 12.3307 31.1896 11.8914 32.0931 11.5939C33.0028 11.2944 34.1088 11.1298 35.3124 11.3688C36.5271 11.61 37.744 12.2434 38.8887 13.388C40.0736 14.5729 40.6579 15.882 40.7976 17.1941C40.9343 18.4776 40.6359 19.6626 40.2295 20.6266C39.865 21.4914 39.3936 22.2267 38.9923 22.7691C39.045 23.1741 39.0719 23.5845 39.0719 23.9995C39.0719 31.1792 31.013 36.9995 21.0719 36.9995C11.1308 36.9995 3.0719 31.1792 3.0719 23.9995L3.07217 23.9268C3.04448 23.9523 3.04436 23.9522 3.04424 23.952L3.04334 23.9511L3.04126 23.9488L3.03596 23.943L3.02089 23.9264C3.00892 23.9132 2.99311 23.8955 2.97386 23.8736C2.93538 23.8298 2.88297 23.7689 2.81966 23.6922C2.69329 23.5391 2.52202 23.3216 2.3306 23.0504C1.95171 22.5138 1.474 21.7394 1.11711 20.8187C0.395376 18.9568 0.123843 16.2938 2.40855 14.0094C4.57082 11.8474 7.01128 11.6819 8.83674 12.0672C9.72831 12.2554 10.4768 12.572 10.9991 12.8374C11.1418 12.9099 11.2693 12.9795 11.3802 13.0429C14.0661 11.801 17.2389 11.0603 20.6457 11.0031L24.5589 0.776855ZM38.0986 5.99951C38.0986 7.21454 37.1136 8.19951 35.8986 8.19951C34.6835 8.19951 33.6986 7.21454 33.6986 5.99951C33.6986 4.78449 34.6835 3.79951 35.8986 3.79951C37.1136 3.79951 38.0986 4.78449 38.0986 5.99951ZM32.1604 30.922C34.8939 28.9478 36.2719 26.4642 36.2719 23.9995C36.2719 21.5348 34.8939 19.0512 32.1604 17.077C29.4307 15.1055 25.5193 13.7995 21.0719 13.7995C16.6245 13.7995 12.7131 15.1055 9.98335 17.077C7.24989 19.0512 5.8719 21.5348 5.8719 23.9995C5.8719 26.4642 7.24989 28.9478 9.98335 30.922C12.7131 32.8935 16.6245 34.1995 21.0719 34.1995C25.5193 34.1995 29.4307 32.8935 32.1604 30.922ZM38.0134 17.4906C38.0722 18.0432 37.9815 18.6119 37.7898 19.1717C36.7346 17.2674 35.0736 15.5855 32.9791 14.2501C33.5385 14.0674 34.1433 13.9913 34.7671 14.1152C35.3835 14.2376 36.1145 14.5737 36.9088 15.368C37.6629 16.122 37.9446 16.8451 38.0134 17.4906ZM8.25851 14.8069C8.2806 14.8115 8.30258 14.8163 8.32446 14.8212C6.29227 16.2934 4.74582 18.1155 3.87347 20.1516C3.82225 20.0394 3.7734 19.9242 3.72783 19.8067C3.23785 18.5427 3.17275 17.2048 4.38833 15.9894C5.72633 14.6516 7.12246 14.5671 8.25851 14.8069ZM14.0719 22.9995C15.1765 22.9995 16.0719 22.1041 16.0719 20.9995C16.0719 19.8949 15.1765 18.9995 14.0719 18.9995C12.9673 18.9995 12.0719 19.8949 12.0719 20.9995C12.0719 22.1041 12.9673 22.9995 14.0719 22.9995ZM30.0719 20.9995C30.0719 22.1041 29.1765 22.9995 28.0719 22.9995C26.9673 22.9995 26.0719 22.1041 26.0719 20.9995C26.0719 19.8949 26.9673 18.9995 28.0719 18.9995C29.1765 18.9995 30.0719 19.8949 30.0719 20.9995ZM27.6763 29.2635C28.3738 28.9299 28.6689 28.094 28.3353 27.3965C28.0018 26.6989 27.1659 26.4038 26.4683 26.7374C24.3053 27.7717 22.7248 28.2384 21.171 28.2492C19.6135 28.2599 17.9265 27.8133 15.555 26.7278C14.8519 26.406 14.0211 26.7151 13.6993 27.4181C13.3775 28.1212 13.6866 28.952 14.3896 29.2738C16.931 30.437 19.0488 31.0639 21.1904 31.0491C23.3358 31.0343 25.3488 30.3764 27.6763 29.2635Z" fill="white"/>
</svg>
