<svg width="40" height="40" viewBox="0 0 40 40" fill="none" xmlns="http://www.w3.org/2000/svg">
<path d="M40 20C40 31.0457 31.0457 40 20 40C8.9543 40 0 31.0457 0 20C0 8.9543 8.9543 0 20 0C31.0457 0 40 8.9543 40 20Z" fill="#A606C0"/>
<path fill-rule="evenodd" clip-rule="evenodd" d="M20.0943 10C14.5194 10 10 14.5194 10 20.0943C10 20.6466 9.55228 21.0943 9 21.0943C8.44772 21.0943 8 20.6466 8 20.0943C8 13.4148 13.4148 8 20.0943 8C26.7739 8 32.1887 13.4148 32.1887 20.0943C32.1887 26.7739 26.7739 32.1887 20.0943 32.1887C16.4819 32.1887 13.2385 30.6037 11.0238 28.0945C10.6584 27.6804 10.6978 27.0485 11.1119 26.683C11.5259 26.3176 12.1579 26.357 12.5233 26.771C14.3744 28.8683 17.0796 30.1887 20.0943 30.1887C25.6693 30.1887 30.1887 25.6693 30.1887 20.0943C30.1887 14.5194 25.6693 10 20.0943 10Z" fill="white"/>
<path fill-rule="evenodd" clip-rule="evenodd" d="M5.79289 17.4452C6.18342 17.0547 6.81658 17.0547 7.20711 17.4452L8.81132 19.0495L10.4155 17.4452C10.8061 17.0547 11.4392 17.0547 11.8297 17.4452C12.2203 17.8358 12.2203 18.4689 11.8297 18.8595L8.81132 21.8779L5.79289 18.8595C5.40237 18.4689 5.40237 17.8358 5.79289 17.4452Z" fill="white"/>
<path fill-rule="evenodd" clip-rule="evenodd" d="M19 14C19.5523 14 20 14.4477 20 15V21.4458L23.53 23.652C23.9983 23.9447 24.1407 24.5617 23.848 25.03C23.5553 25.4983 22.9383 25.6407 22.47 25.348L18 22.5542V15C18 14.4477 18.4477 14 19 14Z" fill="#FFFCFC"/>
</svg>
