<svg xmlns="http://www.w3.org/2000/svg" viewBox="0 0 364.09 641.36"><defs><style>.cls-1{fill:#e5e5e5;}.cls-2{fill:none;stroke:#000229;stroke-miterlimit:10;stroke-width:2px;}.cls-3{fill:#000229;}.cls-4{fill:#fdfefa;}</style></defs><g id="Слой_2" data-name="Слой 2"><rect class="cls-1" width="364.09" height="641.36"/></g><g id="Слой_1" data-name="Слой 1"><rect class="cls-2" x="116.77" y="221.11" width="145.19" height="41.36" rx="3.15"/><rect class="cls-2" x="191.49" y="422.31" width="152.43" height="27.73" rx="3.15"/><rect class="cls-2" x="23.78" y="422.31" width="152.43" height="27.73" rx="3.15"/><rect class="cls-2" x="191.36" y="378.9" width="103.74" height="27.73" rx="3.15"/><rect class="cls-2" x="78.04" y="378.9" width="98.3" height="27.73" rx="3.15"/><rect class="cls-2" x="202.34" y="182" width="138.26" height="27.45" rx="3.15"/><rect class="cls-2" x="23.32" y="182.34" width="165.45" height="27.45" rx="3.15"/><path class="cls-3" d="M128.33,234.94v-4.62h1V235c0,1.89.8,2.48,1.83,2.48S133,236.86,133,235v-4.65h1v4.62c0,2.53-1.22,3.4-2.83,3.4S128.33,237.47,128.33,234.94Z" transform="translate(1.64 0.02)"/><path class="cls-3" d="M136,232.36h.82l.08.85h0a2.6,2.6,0,0,1,1.82-1,1.53,1.53,0,0,1,1.61,1.11,2.72,2.72,0,0,1,1.92-1.11c1.2,0,1.77.79,1.77,2.28v3.69h-1v-3.57c0-1.08-.35-1.55-1.09-1.55a2.15,2.15,0,0,0-1.46.9v4.22h-1v-3.57c0-1.08-.34-1.55-1.08-1.55a2.17,2.17,0,0,0-1.46.9v4.22h-1Z" transform="translate(1.64 0.02)"/><path class="cls-3" d="M145.53,235.28a2.82,2.82,0,0,1,2.8-3.06,2.44,2.44,0,0,1,1.71.68l-.51.65a1.71,1.71,0,0,0-1.15-.51c-1.06,0-1.83.91-1.83,2.24s.73,2.23,1.8,2.23a2.08,2.08,0,0,0,1.37-.58l.43.66a2.85,2.85,0,0,1-1.89.75A2.75,2.75,0,0,1,145.53,235.28Z" transform="translate(1.64 0.02)"/><path class="cls-3" d="M151.43,229.65h1V232l0,1.2a2.82,2.82,0,0,1,1.94-1c1.23,0,1.78.79,1.78,2.28v3.69h-1v-3.57c0-1.08-.33-1.55-1.1-1.55a2.22,2.22,0,0,0-1.59.9v4.22h-1Z" transform="translate(1.64 0.02)"/><path class="cls-3" d="M157.6,236.68c0-1.27,1.09-1.91,3.58-2.18,0-.75-.25-1.47-1.21-1.47a3.22,3.22,0,0,0-1.73.62l-.39-.67a4.29,4.29,0,0,1,2.29-.76c1.42,0,2,.94,2,2.39v3.58h-.81l-.08-.7h0a3,3,0,0,1-1.92.85A1.59,1.59,0,0,1,157.6,236.68Zm3.58.09v-1.62c-2,.23-2.62.71-2.62,1.46s.45.93,1,.93A2.4,2.4,0,0,0,161.18,236.77Z" transform="translate(1.64 0.02)"/><path class="cls-3" d="M163.83,230.53a.68.68,0,0,1,1.36,0,.68.68,0,0,1-1.36,0Zm.18,1.83h1v5.83h-1Z" transform="translate(1.64 0.02)"/><path class="cls-3" d="M167,232.36h.81l.09.84h0a2.8,2.8,0,0,1,2-1c1.22,0,1.78.79,1.78,2.28v3.69h-1v-3.57c0-1.08-.33-1.55-1.1-1.55a2.2,2.2,0,0,0-1.59.9v4.22h-1Z" transform="translate(1.64 0.02)"/><path class="cls-3" d="M176,230.32h4.54v.85H177v2.65h3v.85h-3v3.52h-1Z" transform="translate(1.64 0.02)"/><path class="cls-3" d="M181.58,236.06v-3.7h1v3.57c0,1.08.33,1.55,1.1,1.55.59,0,1-.3,1.56-1v-4.14h1v5.83h-.81l-.08-.91h0a2.46,2.46,0,0,1-1.92,1.06C182.13,238.34,181.58,237.54,181.58,236.06Z" transform="translate(1.64 0.02)"/><path class="cls-3" d="M188.19,237v-7.37h1v7.44c0,.3.13.42.28.42l.21,0,.14.75a1.58,1.58,0,0,1-.57.1C188.49,238.34,188.19,237.86,188.19,237Z" transform="translate(1.64 0.02)"/><path class="cls-3" d="M191.25,237v-7.37h1v7.44c0,.3.13.42.28.42l.21,0,.14.75a1.58,1.58,0,0,1-.57.1C191.55,238.34,191.25,237.86,191.25,237Z" transform="translate(1.64 0.02)"/><path class="cls-3" d="M196.23,237.17l.6-.69a3,3,0,0,0,2.17,1c1,0,1.64-.51,1.64-1.27s-.57-1.06-1.31-1.39l-1.13-.5a2.1,2.1,0,0,1,.88-4.11,3.24,3.24,0,0,1,2.32,1l-.53.64a2.53,2.53,0,0,0-1.79-.73c-.88,0-1.46.44-1.46,1.15s.68,1,1.3,1.3L200,234a2.2,2.2,0,0,1,1.62,2.11c0,1.24-1,2.24-2.68,2.24A3.81,3.81,0,0,1,196.23,237.17Z" transform="translate(1.64 0.02)"/><path class="cls-3" d="M203,236.39v-3.22h-.87v-.75l.91-.06.12-1.63H204v1.63h1.58v.81H204v3.24c0,.71.23,1.12.9,1.12a2.18,2.18,0,0,0,.66-.15l.19.74a3.52,3.52,0,0,1-1.08.22C203.42,238.34,203,237.55,203,236.39Z" transform="translate(1.64 0.02)"/><path class="cls-3" d="M206.27,236.68c0-1.27,1.1-1.91,3.58-2.18,0-.75-.25-1.47-1.2-1.47a3.25,3.25,0,0,0-1.74.62l-.39-.67a4.32,4.32,0,0,1,2.29-.76c1.42,0,2,.94,2,2.39v3.58H210l-.08-.7h0a3.09,3.09,0,0,1-1.93.85A1.59,1.59,0,0,1,206.27,236.68Zm3.58.09v-1.62c-1.95.23-2.61.71-2.61,1.46s.45.93,1,.93A2.38,2.38,0,0,0,209.85,236.77Z" transform="translate(1.64 0.02)"/><path class="cls-3" d="M212.25,235.28a2.82,2.82,0,0,1,2.8-3.06,2.44,2.44,0,0,1,1.71.68l-.51.65a1.72,1.72,0,0,0-1.16-.51c-1.05,0-1.83.91-1.83,2.24s.74,2.23,1.81,2.23a2.08,2.08,0,0,0,1.37-.58l.42.66a2.81,2.81,0,0,1-1.88.75A2.75,2.75,0,0,1,212.25,235.28Z" transform="translate(1.64 0.02)"/><path class="cls-3" d="M218.15,229.65h1v5.78h0l2.49-3.07h1.09l-1.95,2.34,2.21,3.49h-1.08l-1.7-2.8-1.09,1.27v1.53h-1Z" transform="translate(1.64 0.02)"/><path class="cls-3" d="M225.78,230.32h1l.83,4.29c.15.84.31,1.69.46,2.53h.05c.17-.84.36-1.69.55-2.53l1.09-4.29h.91l1.09,4.29c.19.83.38,1.68.57,2.53h0c.15-.85.29-1.7.45-2.53l.82-4.29h1L233,238.19h-1.21l-1.19-4.73c-.13-.61-.26-1.19-.38-1.79h0c-.13.6-.26,1.18-.4,1.79l-1.16,4.73h-1.19Z" transform="translate(1.64 0.02)"/><path class="cls-3" d="M235.49,235.28a2.81,2.81,0,0,1,2.62-3.06c1.49,0,2.33,1.07,2.33,2.73a2.9,2.9,0,0,1-.05.56h-3.93a2,2,0,0,0,1.94,2,2.51,2.51,0,0,0,1.45-.47l.36.65a3.51,3.51,0,0,1-1.93.61A2.79,2.79,0,0,1,235.49,235.28Zm4.07-.47c0-1.17-.52-1.81-1.43-1.81a1.79,1.79,0,0,0-1.67,1.81Z" transform="translate(1.64 0.02)"/><path class="cls-3" d="M242.79,237.59h0l-.09.6h-.79v-8.54h1V232l0,1.05a2.93,2.93,0,0,1,1.83-.81c1.51,0,2.32,1.17,2.32,3,0,2-1.2,3.16-2.53,3.16A2.58,2.58,0,0,1,242.79,237.59ZM246,235.2c0-1.29-.44-2.15-1.54-2.15a2.36,2.36,0,0,0-1.56.79v3.06a2.26,2.26,0,0,0,1.42.61C245.25,237.51,246,236.64,246,235.2Z" transform="translate(1.64 0.02)"/><path class="cls-3" d="M139.77,248.66c0-2.54,1.53-4.08,3.62-4.08a3,3,0,0,1,2.27,1l-.55.65a2.24,2.24,0,0,0-1.7-.74c-1.58,0-2.6,1.21-2.6,3.18s.93,3.21,2.61,3.21a2.09,2.09,0,0,0,1.42-.46v-2h-1.67v-.83h2.58v3.31a3.32,3.32,0,0,1-2.42.92C141.25,252.74,139.77,251.22,139.77,248.66Z" transform="translate(1.64 0.02)"/><path class="cls-3" d="M147.11,249.68a2.81,2.81,0,0,1,2.62-3.06c1.49,0,2.33,1.07,2.33,2.73a2.9,2.9,0,0,1-.05.56h-3.93a2,2,0,0,0,1.94,2,2.51,2.51,0,0,0,1.45-.47l.36.65a3.51,3.51,0,0,1-1.93.61A2.79,2.79,0,0,1,147.11,249.68Zm4.08-.47c0-1.17-.53-1.81-1.44-1.81a1.79,1.79,0,0,0-1.67,1.81Z" transform="translate(1.64 0.02)"/><path class="cls-3" d="M153.5,246.76h.81l.08.84h0a2.78,2.78,0,0,1,1.95-1c1.23,0,1.78.79,1.78,2.28v3.69h-1V249c0-1.08-.32-1.55-1.09-1.55-.6,0-1,.31-1.6.9v4.22h-1Z" transform="translate(1.64 0.02)"/><path class="cls-3" d="M159.63,249.68a2.8,2.8,0,0,1,2.62-3.06c1.48,0,2.32,1.07,2.32,2.73a4.18,4.18,0,0,1,0,.56H160.6a1.94,1.94,0,0,0,1.94,2,2.51,2.51,0,0,0,1.45-.47l.35.65a3.45,3.45,0,0,1-1.92.61A2.79,2.79,0,0,1,159.63,249.68Zm4.07-.47c0-1.17-.52-1.81-1.44-1.81a1.79,1.79,0,0,0-1.67,1.81Z" transform="translate(1.64 0.02)"/><path class="cls-3" d="M166,246.76h.82l.08,1.06h0a2,2,0,0,1,1.66-1.2,1.3,1.3,0,0,1,.62.12l-.18.86a1.7,1.7,0,0,0-.57-.09c-.49,0-1.08.35-1.47,1.34v3.74h-1Z" transform="translate(1.64 0.02)"/><path class="cls-3" d="M169.53,251.08c0-1.27,1.09-1.91,3.58-2.18,0-.75-.26-1.47-1.21-1.47a3.28,3.28,0,0,0-1.74.62l-.38-.67a4.26,4.26,0,0,1,2.29-.76c1.42,0,2,.94,2,2.39v3.58h-.81l-.09-.7h0a3,3,0,0,1-1.93.85A1.58,1.58,0,0,1,169.53,251.08Zm3.58.09v-1.62c-2,.23-2.62.71-2.62,1.46s.45.93,1,.93A2.4,2.4,0,0,0,173.11,251.17Z" transform="translate(1.64 0.02)"/><path class="cls-3" d="M175.94,250.79v-3.23h-.87v-.74l.91-.06.12-1.63h.83v1.63h1.58v.8h-1.58v3.25c0,.71.23,1.12.9,1.12a1.93,1.93,0,0,0,.66-.16l.19.75a3.58,3.58,0,0,1-1.08.22C176.36,252.74,175.94,252,175.94,250.79Z" transform="translate(1.64 0.02)"/><path class="cls-3" d="M179.22,249.68a2.72,2.72,0,1,1,2.7,3.06A2.78,2.78,0,0,1,179.22,249.68Zm4.39,0c0-1.33-.68-2.24-1.69-2.24s-1.68.91-1.68,2.24.68,2.23,1.68,2.23S183.61,251,183.61,249.68Z" transform="translate(1.64 0.02)"/><path class="cls-3" d="M186.16,246.76H187l.09,1.06h0a2,2,0,0,1,1.66-1.2,1.3,1.3,0,0,1,.62.12l-.18.86a1.79,1.79,0,0,0-.57-.09c-.49,0-1.08.35-1.47,1.34v3.74h-1Z" transform="translate(1.64 0.02)"/><path class="cls-3" d="M192.72,249.26a10,10,0,0,1,1.58-5.45l.62.28a10.36,10.36,0,0,0,0,10.33l-.62.28A10,10,0,0,1,192.72,249.26Z" transform="translate(1.64 0.02)"/><path class="cls-3" d="M196.42,249.34v-4.62h1v4.65c0,1.89.8,2.48,1.83,2.48s1.86-.59,1.86-2.48v-4.65h1v4.62c0,2.53-1.22,3.4-2.82,3.4S196.42,251.87,196.42,249.34Z" transform="translate(1.64 0.02)"/><path class="cls-3" d="M204.19,244.72h4.54v.85h-3.54v2.65h3v.85h-3v3.52h-1Z" transform="translate(1.64 0.02)"/><path class="cls-3" d="M209.31,251.57l.6-.69a3,3,0,0,0,2.17,1c1,0,1.64-.51,1.64-1.27s-.57-1.06-1.31-1.39l-1.13-.5a2.1,2.1,0,0,1,.88-4.11,3.24,3.24,0,0,1,2.32,1l-.53.64a2.53,2.53,0,0,0-1.79-.73c-.88,0-1.46.44-1.46,1.15s.68,1,1.3,1.3l1.12.48a2.2,2.2,0,0,1,1.62,2.11c0,1.24-1,2.24-2.68,2.24A3.81,3.81,0,0,1,209.31,251.57Z" transform="translate(1.64 0.02)"/><path class="cls-3" d="M215.48,244.72h1l.82,4.29c.16.84.31,1.69.46,2.53h0c.18-.84.36-1.69.55-2.53l1.1-4.29h.91L221.5,249c.19.83.38,1.68.57,2.53h0c.16-.85.3-1.7.45-2.53l.83-4.29h1l-1.63,7.87h-1.2l-1.19-4.73c-.14-.61-.26-1.19-.38-1.79h0c-.12.6-.26,1.18-.39,1.79l-1.17,4.73h-1.19Z" transform="translate(1.64 0.02)"/><path class="cls-3" d="M225.19,248.66c0-2.54,1.53-4.08,3.61-4.08a3,3,0,0,1,2.27,1l-.55.65a2.22,2.22,0,0,0-1.69-.74c-1.59,0-2.61,1.21-2.61,3.18s.94,3.21,2.62,3.21a2.11,2.11,0,0,0,1.42-.46v-2h-1.67v-.83h2.58v3.31a3.36,3.36,0,0,1-2.43.92C226.67,252.74,225.19,251.22,225.19,248.66Z" transform="translate(1.64 0.02)"/><path class="cls-3" d="M232.43,254.42a10.36,10.36,0,0,0,0-10.33l.61-.28a10.12,10.12,0,0,1,0,10.89Z" transform="translate(1.64 0.02)"/><path class="cls-3" d="M213.7,195.54c0-2.54,1.53-4.09,3.62-4.09a3.09,3.09,0,0,1,2.27,1l-.55.66a2.22,2.22,0,0,0-1.7-.75c-1.58,0-2.6,1.22-2.6,3.18s.93,3.22,2.61,3.22a2.14,2.14,0,0,0,1.42-.46v-2.05H217.1v-.83h2.58v3.31a3.32,3.32,0,0,1-2.42.91C215.18,199.61,213.7,198.1,213.7,195.54Z" transform="translate(1.64 0.02)"/><path class="cls-3" d="M221.11,198c0-1.27,1.1-1.9,3.58-2.17,0-.75-.25-1.47-1.2-1.47a3.25,3.25,0,0,0-1.74.62l-.39-.67a4.24,4.24,0,0,1,2.29-.77c1.43,0,2,.95,2,2.4v3.58h-.82l-.08-.7h0a3.13,3.13,0,0,1-1.93.84A1.58,1.58,0,0,1,221.11,198Zm3.58.1v-1.62c-1.95.23-2.61.71-2.61,1.46s.45.93,1,.93A2.42,2.42,0,0,0,224.69,198.05Z" transform="translate(1.64 0.02)"/><path class="cls-3" d="M226.87,198.8l.49-.65a2.62,2.62,0,0,0,1.72.69c.77,0,1.15-.4,1.15-.9s-.69-.87-1.34-1.11c-.81-.3-1.73-.7-1.73-1.68s.74-1.66,2-1.66a3,3,0,0,1,1.81.66l-.47.63a2.19,2.19,0,0,0-1.33-.52c-.74,0-1.08.39-1.08.84s.64.76,1.3,1c.84.32,1.78.66,1.78,1.77,0,.94-.76,1.73-2.13,1.73A3.51,3.51,0,0,1,226.87,198.8Z" transform="translate(1.64 0.02)"/><path class="cls-3" d="M232.07,198.44l.6-.68a3.1,3.1,0,0,0,2.17,1c1,0,1.65-.51,1.65-1.28s-.57-1.06-1.32-1.38l-1.13-.5a2.22,2.22,0,0,1-1.59-2,2.24,2.24,0,0,1,2.48-2.09,3.24,3.24,0,0,1,2.31,1l-.53.64a2.53,2.53,0,0,0-1.78-.74c-.89,0-1.47.45-1.47,1.15s.69,1,1.3,1.31l1.12.48a2.2,2.2,0,0,1,1.63,2.11c0,1.24-1,2.23-2.69,2.23A3.77,3.77,0,0,1,232.07,198.44Z" transform="translate(1.64 0.02)"/><path class="cls-3" d="M238.88,197.33v-3.69h1v3.57c0,1.08.32,1.55,1.09,1.55.6,0,1-.3,1.57-1v-4.13h1v5.83h-.81l-.09-.91h0a2.48,2.48,0,0,1-1.92,1.05C239.43,199.61,238.88,198.82,238.88,197.33Z" transform="translate(1.64 0.02)"/><path class="cls-3" d="M246.4,198.87h0l-.1.6h-.79v-8.55h1v2.34l0,1.05a2.94,2.94,0,0,1,1.83-.82c1.51,0,2.32,1.17,2.32,3,0,2-1.2,3.15-2.53,3.15A2.62,2.62,0,0,1,246.4,198.87Zm3.17-2.4c0-1.28-.44-2.15-1.54-2.15a2.4,2.4,0,0,0-1.56.8v3.06a2.24,2.24,0,0,0,1.42.6C248.86,198.78,249.57,197.91,249.57,196.47Z" transform="translate(1.64 0.02)"/><path class="cls-3" d="M251.45,198.8l.49-.65a2.6,2.6,0,0,0,1.72.69c.76,0,1.14-.4,1.14-.9s-.68-.87-1.33-1.11c-.82-.3-1.74-.7-1.74-1.68s.75-1.66,2-1.66a2.92,2.92,0,0,1,1.81.66l-.47.63a2.16,2.16,0,0,0-1.33-.52c-.73,0-1.07.39-1.07.84s.63.76,1.29,1c.84.32,1.78.66,1.78,1.77,0,.94-.75,1.73-2.13,1.73A3.5,3.5,0,0,1,251.45,198.8Z" transform="translate(1.64 0.02)"/><path class="cls-3" d="M256.94,191.8a.69.69,0,0,1,1.37,0,.69.69,0,0,1-1.37,0Zm.18,1.84h1v5.83h-1Z" transform="translate(1.64 0.02)"/><path class="cls-3" d="M259.66,196.56c0-1.89,1.19-3.07,2.52-3.07a2.42,2.42,0,0,1,1.64.68l0-1v-2.25h1v8.55H264l-.09-.69h0a2.58,2.58,0,0,1-1.77.83C260.61,199.61,259.66,198.5,259.66,196.56Zm4.12,1.43v-3.06a2.09,2.09,0,0,0-1.43-.61c-.93,0-1.67.9-1.67,2.23s.58,2.23,1.6,2.23A2,2,0,0,0,263.78,198Z" transform="translate(1.64 0.02)"/><path class="cls-3" d="M266.55,191.8a.69.69,0,0,1,1.37,0,.69.69,0,0,1-1.37,0Zm.19,1.84h1v5.83h-1Z" transform="translate(1.64 0.02)"/><path class="cls-3" d="M269.08,198.94l3.06-4.5h-2.72v-.8h4v.53l-3.06,4.49h3.16v.81h-4.41Z" transform="translate(1.64 0.02)"/><path class="cls-3" d="M274.23,196.56a2.81,2.81,0,0,1,2.63-3.07c1.48,0,2.32,1.07,2.32,2.74a4.18,4.18,0,0,1,0,.56h-3.93a1.94,1.94,0,0,0,1.94,2,2.51,2.51,0,0,0,1.45-.47l.35.65a3.45,3.45,0,0,1-1.92.6A2.79,2.79,0,0,1,274.23,196.56Zm4.08-.48c0-1.16-.52-1.8-1.44-1.8a1.79,1.79,0,0,0-1.67,1.8Z" transform="translate(1.64 0.02)"/><path class="cls-3" d="M280.62,193.64h.81l.09,1.06h0a2,2,0,0,1,1.66-1.21,1.43,1.43,0,0,1,.62.12l-.18.87a1.75,1.75,0,0,0-.57-.1c-.49,0-1.08.36-1.47,1.34v3.75h-1Z" transform="translate(1.64 0.02)"/><path class="cls-3" d="M284.42,195.54c0-2.54,1.49-4.09,3.49-4.09a3,3,0,0,1,2.17,1l-.55.66a2.14,2.14,0,0,0-1.6-.75c-1.49,0-2.48,1.22-2.48,3.18s.95,3.22,2.44,3.22a2.37,2.37,0,0,0,1.82-.88l.55.63a3,3,0,0,1-2.41,1.13C285.89,199.61,284.42,198.1,284.42,195.54Z" transform="translate(1.64 0.02)"/><path class="cls-3" d="M291.2,196.56a2.72,2.72,0,1,1,2.7,3.05A2.79,2.79,0,0,1,291.2,196.56Zm4.39,0c0-1.33-.68-2.24-1.69-2.24s-1.68.91-1.68,2.24.68,2.23,1.68,2.23S295.59,197.9,295.59,196.56Z" transform="translate(1.64 0.02)"/><path class="cls-3" d="M298.14,193.64H299l.09.84h0a2.76,2.76,0,0,1,2-1c1.22,0,1.78.8,1.78,2.28v3.7h-1V195.9c0-1.08-.33-1.55-1.1-1.55-.6,0-1,.31-1.6.9v4.22h-1Z" transform="translate(1.64 0.02)"/><path class="cls-3" d="M304.88,197.67v-3.23H304v-.74l.91-.06L305,192h.82v1.64h1.58v.8h-1.58v3.24c0,.72.23,1.13.9,1.13a1.93,1.93,0,0,0,.67-.16l.19.75a3.57,3.57,0,0,1-1.08.21C305.3,199.61,304.88,198.83,304.88,197.67Z" transform="translate(1.64 0.02)"/><path class="cls-3" d="M308.76,193.64h.81l.09,1.06h0a2,2,0,0,1,1.66-1.21,1.43,1.43,0,0,1,.62.12l-.18.87a1.8,1.8,0,0,0-.57-.1c-.49,0-1.08.36-1.47,1.34v3.75h-1Z" transform="translate(1.64 0.02)"/><path class="cls-3" d="M312.27,198c0-1.27,1.1-1.9,3.58-2.17,0-.75-.25-1.47-1.2-1.47a3.28,3.28,0,0,0-1.74.62l-.38-.67a4.18,4.18,0,0,1,2.29-.77c1.42,0,2,.95,2,2.4v3.58H316l-.09-.7h0a3.11,3.11,0,0,1-1.93.84A1.59,1.59,0,0,1,312.27,198Zm3.58.1v-1.62c-2,.23-2.61.71-2.61,1.46s.45.93,1,.93A2.4,2.4,0,0,0,315.85,198.05Z" transform="translate(1.64 0.02)"/><path class="cls-3" d="M318.25,196.56a2.83,2.83,0,0,1,2.8-3.07,2.45,2.45,0,0,1,1.71.69l-.5.65a1.67,1.67,0,0,0-1.16-.51c-1.06,0-1.83.91-1.83,2.24s.73,2.23,1.8,2.23a2.09,2.09,0,0,0,1.37-.58l.43.66a2.82,2.82,0,0,1-1.89.74A2.74,2.74,0,0,1,318.25,196.56Z" transform="translate(1.64 0.02)"/><path class="cls-3" d="M324.21,197.67v-3.23h-.87v-.74l.91-.06.12-1.64h.82v1.64h1.58v.8h-1.58v3.24c0,.72.23,1.13.91,1.13a1.93,1.93,0,0,0,.66-.16l.19.75a3.57,3.57,0,0,1-1.08.21C324.63,199.61,324.21,198.83,324.21,197.67Z" transform="translate(1.64 0.02)"/><path class="cls-3" d="M31,191.75h1l2.85,4.95.85,1.63h0c-.06-.79-.13-1.68-.13-2.5v-4.08h1v7.87h-1l-2.84-5-.85-1.62h-.05c.05.79.13,1.63.13,2.46v4.11H31Z" transform="translate(1.64 0.02)"/><path class="cls-3" d="M38.73,191.75h4.54v.85H39.73v2.66h3v.84h-3v3.52h-1Z" transform="translate(1.64 0.02)"/><path class="cls-3" d="M46.29,192.6H43.91v-.85h5.77v.85H47.3v7h-1Z" transform="translate(1.64 0.02)"/><path class="cls-3" d="M53.49,191.75h1.2L56.2,196c.19.54.37,1.09.56,1.64h.05c.19-.55.36-1.1.54-1.64l1.5-4.21h1.2v7.87h-.93v-4.33c0-.68.08-1.63.13-2.33h0l-.62,1.8-1.49,4.07h-.66l-1.49-4.07-.62-1.8h0c0,.7.12,1.65.12,2.33v4.33h-.9Z" transform="translate(1.64 0.02)"/><path class="cls-3" d="M61.69,196.72a2.72,2.72,0,1,1,2.7,3.05A2.79,2.79,0,0,1,61.69,196.72Zm4.38,0c0-1.34-.68-2.25-1.68-2.25s-1.68.91-1.68,2.25.68,2.23,1.68,2.23S66.07,198.05,66.07,196.72Z" transform="translate(1.64 0.02)"/><path class="cls-3" d="M68.21,196.72c0-1.89,1.19-3.07,2.52-3.07a2.38,2.38,0,0,1,1.63.68l0-1v-2.25h1v8.54h-.82l-.08-.68h0a2.62,2.62,0,0,1-1.77.83C69.15,199.77,68.21,198.66,68.21,196.72Zm4.11,1.42v-3a2,2,0,0,0-1.42-.61c-.93,0-1.67.9-1.67,2.23s.58,2.23,1.6,2.23A2,2,0,0,0,72.32,198.14Z" transform="translate(1.64 0.02)"/><path class="cls-3" d="M75.21,197.49v-3.7h1v3.57c0,1.09.33,1.55,1.1,1.55.6,0,1-.29,1.56-1v-4.14h1v5.83H79l-.08-.91h0A2.46,2.46,0,0,1,77,199.77C75.76,199.77,75.21,199,75.21,197.49Z" transform="translate(1.64 0.02)"/><path class="cls-3" d="M81.81,198.45v-7.37h1v7.45c0,.3.13.42.27.42a.7.7,0,0,0,.22,0l.13.76a1.61,1.61,0,0,1-.57.09C82.12,199.77,81.81,199.3,81.81,198.45Z" transform="translate(1.64 0.02)"/><path class="cls-3" d="M84.44,196.72a2.81,2.81,0,0,1,2.62-3.07c1.49,0,2.32,1.07,2.32,2.74a3.06,3.06,0,0,1,0,.56H85.41a1.94,1.94,0,0,0,1.94,2,2.58,2.58,0,0,0,1.45-.46l.35.64a3.37,3.37,0,0,1-1.92.61A2.79,2.79,0,0,1,84.44,196.72Zm4.07-.48c0-1.17-.52-1.8-1.43-1.8a1.8,1.8,0,0,0-1.68,1.8Z" transform="translate(1.64 0.02)"/><path class="cls-3" d="M92.59,193.85l.84-.06h2.18v.81h-3Zm.8-1c0-1.18.53-1.93,1.7-1.93a2.57,2.57,0,0,1,1,.2l-.21.75a1.62,1.62,0,0,0-.66-.15c-.55,0-.82.38-.82,1.14v6.74h-1Z" transform="translate(1.64 0.02)"/><path class="cls-3" d="M96.17,196.72a2.72,2.72,0,1,1,2.71,3.05A2.79,2.79,0,0,1,96.17,196.72Zm4.39,0c0-1.34-.68-2.25-1.68-2.25s-1.69.91-1.69,2.25.68,2.23,1.69,2.23S100.56,198.05,100.56,196.72Z" transform="translate(1.64 0.02)"/><path class="cls-3" d="M103.11,193.79h.82l.08,1.07h0a2,2,0,0,1,1.66-1.21,1.3,1.3,0,0,1,.62.12l-.18.87a1.48,1.48,0,0,0-.57-.1c-.49,0-1.08.36-1.47,1.34v3.74h-1Z" transform="translate(1.64 0.02)"/><path class="cls-3" d="M109.73,196.37v-4.62h1v4.65c0,1.89.8,2.49,1.82,2.49s1.87-.6,1.87-2.49v-4.65h1v4.62c0,2.53-1.22,3.4-2.83,3.4S109.73,198.9,109.73,196.37Z" transform="translate(1.64 0.02)"/><path class="cls-3" d="M117.51,191.75h1.2l1.51,4.21c.19.54.37,1.09.56,1.64h0c.19-.55.35-1.1.54-1.64l1.49-4.21h1.21v7.87h-.93v-4.33c0-.68.08-1.63.13-2.33h0l-.63,1.8-1.48,4.07h-.66L119,194.76l-.63-1.8h0c0,.7.12,1.65.12,2.33v4.33h-.9Z" transform="translate(1.64 0.02)"/><path class="cls-3" d="M125.77,195.7c0-2.54,1.5-4.09,3.5-4.09a2.92,2.92,0,0,1,2.16,1l-.55.65a2.13,2.13,0,0,0-1.6-.74c-1.48,0-2.47,1.22-2.47,3.18s.94,3.22,2.44,3.22a2.35,2.35,0,0,0,1.82-.89l.55.63a3,3,0,0,1-2.42,1.14C127.24,199.77,125.77,198.25,125.77,195.7Z" transform="translate(1.64 0.02)"/><path class="cls-3" d="M134.5,192.6h-2.38v-.85h5.77v.85h-2.38v7h-1Z" transform="translate(1.64 0.02)"/><path class="cls-3" d="M141.61,196.29a10,10,0,0,1,1.58-5.45l.61.29a10.4,10.4,0,0,0,0,10.32l-.61.29A10,10,0,0,1,141.61,196.29Z" transform="translate(1.64 0.02)"/><path class="cls-3" d="M145.33,191.75h1l2.85,4.95.85,1.63h.05c-.06-.79-.13-1.68-.13-2.5v-4.08h.95v7.87h-1l-2.84-5-.85-1.62h-.05c.05.79.13,1.63.13,2.46v4.11h-1Z" transform="translate(1.64 0.02)"/><path class="cls-3" d="M153.1,191.75h4.54v.85H154.1v2.66h3v.84h-3v3.52h-1Z" transform="translate(1.64 0.02)"/><path class="cls-3" d="M160.67,192.6h-2.39v-.85h5.77v.85h-2.38v7h-1Z" transform="translate(1.64 0.02)"/><path class="cls-3" d="M165.46,191.75h1.2l1.51,4.21c.19.54.37,1.09.56,1.64h.05c.19-.55.35-1.1.54-1.64l1.5-4.21H172v7.87h-.93v-4.33c0-.68.08-1.63.13-2.33h-.05l-.62,1.8-1.49,4.07h-.66l-1.49-4.07-.62-1.8h0c0,.7.13,1.65.13,2.33v4.33h-.91Z" transform="translate(1.64 0.02)"/><path class="cls-3" d="M173.56,201.45a10.34,10.34,0,0,0,0-10.32l.62-.29a10.19,10.19,0,0,1,0,10.9Z" transform="translate(1.64 0.02)"/><path class="cls-3" d="M53.83,436.47v-4.62h1v4.65c0,1.89.8,2.49,1.82,2.49s1.87-.6,1.87-2.49v-4.65h1v4.62c0,2.53-1.22,3.4-2.83,3.4S53.83,439,53.83,436.47Z" transform="translate(1.64 0.02)"/><path class="cls-3" d="M61.51,433.89h.81l.08.85h0a2.6,2.6,0,0,1,1.81-1,1.54,1.54,0,0,1,1.61,1.11,2.77,2.77,0,0,1,1.92-1.11c1.2,0,1.78.79,1.78,2.28v3.69h-1v-3.56c0-1.09-.34-1.55-1.08-1.55a2.12,2.12,0,0,0-1.47.89v4.22H65v-3.56c0-1.09-.35-1.55-1.09-1.55a2.16,2.16,0,0,0-1.46.89v4.22h-1Z" transform="translate(1.64 0.02)"/><path class="cls-3" d="M71,436.82a2.83,2.83,0,0,1,2.81-3.07,2.48,2.48,0,0,1,1.7.68l-.5.66a1.68,1.68,0,0,0-1.16-.52c-1.06,0-1.83.91-1.83,2.25s.73,2.23,1.8,2.23a2.05,2.05,0,0,0,1.37-.59l.43.67a2.85,2.85,0,0,1-1.89.74A2.74,2.74,0,0,1,71,436.82Z" transform="translate(1.64 0.02)"/><path class="cls-3" d="M76.93,431.18h1v2.34l0,1.19a2.77,2.77,0,0,1,1.93-1c1.23,0,1.78.79,1.78,2.28v3.69h-1v-3.56c0-1.09-.33-1.55-1.1-1.55a2.22,2.22,0,0,0-1.6.89v4.22h-1Z" transform="translate(1.64 0.02)"/><path class="cls-3" d="M83.09,438.21c0-1.27,1.1-1.91,3.58-2.18,0-.75-.25-1.47-1.2-1.47a3.18,3.18,0,0,0-1.74.63l-.39-.68a4.32,4.32,0,0,1,2.29-.76c1.43,0,2,.95,2,2.4v3.57h-.82l-.08-.69h0a3.13,3.13,0,0,1-1.93.84A1.59,1.59,0,0,1,83.09,438.21Zm3.58.09v-1.62c-2,.24-2.61.72-2.61,1.46s.45.93,1,.93A2.38,2.38,0,0,0,86.67,438.3Z" transform="translate(1.64 0.02)"/><path class="cls-3" d="M89.32,432.06a.68.68,0,1,1,.68.64A.65.65,0,0,1,89.32,432.06Zm.18,1.83h1v5.83h-1Z" transform="translate(1.64 0.02)"/><path class="cls-3" d="M92.45,433.89h.82l.08.84h0a2.82,2.82,0,0,1,2-1c1.23,0,1.78.79,1.78,2.28v3.69h-1v-3.56c0-1.09-.32-1.55-1.1-1.55a2.2,2.2,0,0,0-1.59.89v4.22h-1Z" transform="translate(1.64 0.02)"/><path class="cls-3" d="M101.05,435.79c0-2.53,1.5-4.08,3.5-4.08a2.92,2.92,0,0,1,2.16,1l-.55.65a2.13,2.13,0,0,0-1.6-.74c-1.48,0-2.47,1.22-2.47,3.18S103,439,104.52,439a2.35,2.35,0,0,0,1.83-.89l.55.63a3.06,3.06,0,0,1-2.42,1.14C102.52,439.87,101.05,438.35,101.05,435.79Z" transform="translate(1.64 0.02)"/><path class="cls-3" d="M107.84,436.82a2.72,2.72,0,1,1,2.7,3.05A2.79,2.79,0,0,1,107.84,436.82Zm4.38,0c0-1.34-.68-2.25-1.68-2.25s-1.68.91-1.68,2.25.68,2.23,1.68,2.23S112.22,438.15,112.22,436.82Z" transform="translate(1.64 0.02)"/><path class="cls-3" d="M114.77,433.89h.82l.08.84h0a2.82,2.82,0,0,1,2-1c1.23,0,1.78.79,1.78,2.28v3.69h-1v-3.56c0-1.09-.33-1.55-1.1-1.55a2.2,2.2,0,0,0-1.59.89v4.22h-1Z" transform="translate(1.64 0.02)"/><path class="cls-3" d="M121.51,437.92V434.7h-.87V434l.91-.06.12-1.63h.83v1.63h1.58v.81H122.5v3.24c0,.71.23,1.12.9,1.12a1.87,1.87,0,0,0,.66-.15l.19.74a3.46,3.46,0,0,1-1.08.22C121.93,439.87,121.51,439.08,121.51,437.92Z" transform="translate(1.64 0.02)"/><path class="cls-3" d="M125.39,433.89h.82l.08,1.07h0a2,2,0,0,1,1.66-1.21,1.3,1.3,0,0,1,.62.12l-.18.87a1.48,1.48,0,0,0-.57-.1c-.49,0-1.08.35-1.47,1.34v3.74h-1Z" transform="translate(1.64 0.02)"/><path class="cls-3" d="M128.91,438.21c0-1.27,1.09-1.91,3.58-2.18,0-.75-.25-1.47-1.2-1.47a3.15,3.15,0,0,0-1.74.63l-.39-.68a4.32,4.32,0,0,1,2.29-.76c1.42,0,2,.95,2,2.4v3.57h-.82l-.08-.69h0a3.08,3.08,0,0,1-1.92.84A1.59,1.59,0,0,1,128.91,438.21Zm3.58.09v-1.62c-2,.24-2.61.72-2.61,1.46s.44.93,1,.93A2.4,2.4,0,0,0,132.49,438.3Z" transform="translate(1.64 0.02)"/><path class="cls-3" d="M134.88,436.82a2.83,2.83,0,0,1,2.81-3.07,2.48,2.48,0,0,1,1.7.68l-.5.66a1.68,1.68,0,0,0-1.16-.52c-1,0-1.83.91-1.83,2.25s.73,2.23,1.81,2.23a2.09,2.09,0,0,0,1.37-.59l.42.67a2.85,2.85,0,0,1-1.88.74A2.74,2.74,0,0,1,134.88,436.82Z" transform="translate(1.64 0.02)"/><path class="cls-3" d="M140.84,437.92V434.7H140V434l.92-.06.11-1.63h.83v1.63h1.58v.81h-1.58v3.24c0,.71.23,1.12.9,1.12a1.82,1.82,0,0,0,.66-.15l.19.74a3.46,3.46,0,0,1-1.08.22C141.26,439.87,140.84,439.08,140.84,437.92Z" transform="translate(1.64 0.02)"/><path class="cls-3" d="M90.56,387.83H95.1v.84H91.56v2.66h3v.85h-3v3.52h-1Z" transform="translate(1.64 0.02)"/><path class="cls-3" d="M95.79,392.79a2.81,2.81,0,0,1,2.62-3.07c1.49,0,2.33,1.07,2.33,2.74a2.9,2.9,0,0,1,0,.56H96.77a1.93,1.93,0,0,0,1.93,2,2.58,2.58,0,0,0,1.45-.46l.36.65a3.45,3.45,0,0,1-1.93.6A2.78,2.78,0,0,1,95.79,392.79Zm4.08-.48c0-1.17-.53-1.8-1.44-1.8a1.79,1.79,0,0,0-1.67,1.8Z" transform="translate(1.64 0.02)"/><path class="cls-3" d="M101.74,392.79a2.81,2.81,0,0,1,2.62-3.07c1.49,0,2.33,1.07,2.33,2.74a4.18,4.18,0,0,1,0,.56h-3.93a1.93,1.93,0,0,0,1.94,2,2.58,2.58,0,0,0,1.45-.46l.35.65a3.45,3.45,0,0,1-1.92.6A2.79,2.79,0,0,1,101.74,392.79Zm4.08-.48c0-1.17-.53-1.8-1.44-1.8a1.79,1.79,0,0,0-1.67,1.8Z" transform="translate(1.64 0.02)"/><path class="cls-3" d="M107.52,395.17l3.07-4.5h-2.73v-.8h4v.52l-3.06,4.5h3.17v.81h-4.42Z" transform="translate(1.64 0.02)"/><path class="cls-3" d="M112.68,392.79a2.81,2.81,0,0,1,2.62-3.07c1.48,0,2.32,1.07,2.32,2.74a4.18,4.18,0,0,1,0,.56h-3.93a1.94,1.94,0,0,0,1.94,2,2.58,2.58,0,0,0,1.45-.46l.35.65a3.45,3.45,0,0,1-1.92.6A2.78,2.78,0,0,1,112.68,392.79Zm4.07-.48c0-1.17-.52-1.8-1.44-1.8a1.79,1.79,0,0,0-1.67,1.8Z" transform="translate(1.64 0.02)"/><path class="cls-3" d="M118.7,391.77c0-2.54,1.49-4.09,3.49-4.09a3,3,0,0,1,2.16,1l-.55.65a2.13,2.13,0,0,0-1.59-.74c-1.49,0-2.48,1.22-2.48,3.18s.94,3.22,2.44,3.22a2.37,2.37,0,0,0,1.82-.88l.55.63a3,3,0,0,1-2.41,1.13C120.16,395.84,118.7,394.32,118.7,391.77Z" transform="translate(1.64 0.02)"/><path class="cls-3" d="M125.48,392.79a2.72,2.72,0,1,1,2.7,3A2.79,2.79,0,0,1,125.48,392.79Zm4.38,0c0-1.34-.68-2.25-1.68-2.25s-1.68.91-1.68,2.25.68,2.23,1.68,2.23S129.86,394.13,129.86,392.79Z" transform="translate(1.64 0.02)"/><path class="cls-3" d="M132.42,389.87h.81l.08.84h0a2.75,2.75,0,0,1,2-1c1.23,0,1.78.8,1.78,2.28v3.7h-1v-3.57c0-1.09-.33-1.55-1.1-1.55a2.2,2.2,0,0,0-1.6.9v4.22h-1Z" transform="translate(1.64 0.02)"/><path class="cls-3" d="M139.15,393.89v-3.22h-.86v-.75l.91-.05.12-1.64h.82v1.64h1.58v.8h-1.58v3.24c0,.71.23,1.13.9,1.13a1.93,1.93,0,0,0,.67-.16l.19.74a3.31,3.31,0,0,1-1.09.22C139.57,395.84,139.15,395.05,139.15,393.89Z" transform="translate(1.64 0.02)"/><path class="cls-3" d="M143,389.87h.81l.08,1.06h0a2,2,0,0,1,1.65-1.21,1.51,1.51,0,0,1,.63.12l-.19.87a1.69,1.69,0,0,0-.56-.1c-.49,0-1.08.36-1.48,1.34v3.75h-1Z" transform="translate(1.64 0.02)"/><path class="cls-3" d="M146.55,394.18c0-1.27,1.1-1.9,3.58-2.17,0-.75-.25-1.47-1.2-1.47a3.25,3.25,0,0,0-1.74.62l-.39-.68a4.32,4.32,0,0,1,2.29-.76c1.43,0,2,.95,2,2.4v3.58h-.82l-.08-.7h0a3.13,3.13,0,0,1-1.93.84A1.58,1.58,0,0,1,146.55,394.18Zm3.58.09v-1.61c-1.95.23-2.61.71-2.61,1.45a.89.89,0,0,0,1,.94A2.39,2.39,0,0,0,150.13,394.27Z" transform="translate(1.64 0.02)"/><path class="cls-3" d="M152.53,392.79a2.83,2.83,0,0,1,2.8-3.07,2.45,2.45,0,0,1,1.71.69l-.51.65a1.68,1.68,0,0,0-1.15-.52c-1.06,0-1.83.91-1.83,2.25s.73,2.23,1.8,2.23a2.13,2.13,0,0,0,1.37-.58l.43.66a2.84,2.84,0,0,1-1.89.74A2.74,2.74,0,0,1,152.53,392.79Z" transform="translate(1.64 0.02)"/><path class="cls-3" d="M158.49,393.89v-3.22h-.87v-.75l.91-.05.12-1.64h.82v1.64h1.58v.8h-1.58v3.24c0,.71.23,1.13.9,1.13a1.93,1.93,0,0,0,.67-.16l.19.74a3.3,3.3,0,0,1-1.08.22C158.91,395.84,158.49,395.05,158.49,393.89Z" transform="translate(1.64 0.02)"/><path class="cls-3" d="M200.33,431.6h1l.83,4.28c.15.85.3,1.69.46,2.54h0c.18-.85.37-1.7.56-2.54l1.09-4.28h.91l1.09,4.28c.19.83.38,1.69.57,2.54H207c.15-.85.29-1.7.44-2.54l.83-4.28h1l-1.63,7.87h-1.21l-1.19-4.73c-.14-.62-.26-1.19-.38-1.8h-.05c-.12.61-.25,1.18-.39,1.8l-1.17,4.73H202Z" transform="translate(1.64 0.02)"/><path class="cls-3" d="M210.05,436.56a2.81,2.81,0,0,1,2.62-3.07c1.48,0,2.32,1.07,2.32,2.74a3,3,0,0,1,0,.56H211a1.94,1.94,0,0,0,1.94,2,2.51,2.51,0,0,0,1.45-.47l.35.65a3.45,3.45,0,0,1-1.92.6A2.78,2.78,0,0,1,210.05,436.56Zm4.07-.48c0-1.16-.52-1.8-1.44-1.8a1.79,1.79,0,0,0-1.67,1.8Z" transform="translate(1.64 0.02)"/><path class="cls-3" d="M217.34,438.87h0l-.09.6h-.79v-8.55h1v2.34l0,1.05a3,3,0,0,1,1.84-.82c1.5,0,2.31,1.17,2.31,3,0,2-1.19,3.15-2.52,3.15A2.64,2.64,0,0,1,217.34,438.87Zm3.17-2.4c0-1.28-.44-2.15-1.53-2.15a2.38,2.38,0,0,0-1.56.8v3.06a2.24,2.24,0,0,0,1.42.6C219.8,438.78,220.51,437.91,220.51,436.47Z" transform="translate(1.64 0.02)"/><path class="cls-3" d="M222.4,438.8l.48-.65a2.62,2.62,0,0,0,1.72.69c.77,0,1.15-.4,1.15-.9s-.69-.87-1.33-1.11c-.82-.3-1.74-.7-1.74-1.68s.74-1.66,2-1.66a2.92,2.92,0,0,1,1.81.66l-.47.63a2.16,2.16,0,0,0-1.33-.52c-.73,0-1.07.39-1.07.84s.63.76,1.29,1c.84.32,1.78.66,1.78,1.77,0,.94-.75,1.73-2.13,1.73A3.45,3.45,0,0,1,222.4,438.8Z" transform="translate(1.64 0.02)"/><path class="cls-3" d="M227.89,431.8a.68.68,0,0,1,1.36,0,.68.68,0,0,1-1.36,0Zm.18,1.84h1v5.83h-1Z" transform="translate(1.64 0.02)"/><path class="cls-3" d="M231.2,437.67v-3.23h-.87v-.74l.91-.06.12-1.64h.82v1.64h1.58v.8h-1.58v3.24c0,.72.23,1.13.9,1.13a1.93,1.93,0,0,0,.67-.16l.19.75a3.57,3.57,0,0,1-1.08.21C231.62,439.61,231.2,438.83,231.2,437.67Z" transform="translate(1.64 0.02)"/><path class="cls-3" d="M234.48,436.56a2.81,2.81,0,0,1,2.62-3.07c1.49,0,2.32,1.07,2.32,2.74a3,3,0,0,1,0,.56h-3.93a1.94,1.94,0,0,0,1.94,2,2.51,2.51,0,0,0,1.45-.47l.35.65a3.45,3.45,0,0,1-1.92.6A2.78,2.78,0,0,1,234.48,436.56Zm4.07-.48c0-1.16-.52-1.8-1.43-1.8a1.8,1.8,0,0,0-1.68,1.8Z" transform="translate(1.64 0.02)"/><path class="cls-3" d="M241,431.6h2c2.42,0,3.72,1.4,3.72,3.9s-1.3,4-3.67,4h-2Zm1.89,7c1.84,0,2.76-1.16,2.76-3.15s-.92-3.08-2.76-3.08H242v6.23Z" transform="translate(1.64 0.02)"/><path class="cls-3" d="M247.88,438c0-1.27,1.1-1.9,3.58-2.17,0-.75-.25-1.47-1.2-1.47a3.25,3.25,0,0,0-1.74.62l-.39-.67a4.24,4.24,0,0,1,2.29-.77c1.43,0,2,.95,2,2.4v3.58h-.82l-.08-.7h0a3.13,3.13,0,0,1-1.93.84A1.58,1.58,0,0,1,247.88,438Zm3.58.1v-1.62c-2,.23-2.61.71-2.61,1.45a.89.89,0,0,0,1,.94A2.42,2.42,0,0,0,251.46,438.05Z" transform="translate(1.64 0.02)"/><path class="cls-3" d="M254.3,437.67v-3.23h-.87v-.74l.91-.06.12-1.64h.82v1.64h1.58v.8h-1.58v3.24c0,.72.23,1.13.9,1.13a1.93,1.93,0,0,0,.67-.16l.19.75a3.57,3.57,0,0,1-1.08.21C254.72,439.61,254.3,438.83,254.3,437.67Z" transform="translate(1.64 0.02)"/><path class="cls-3" d="M257.57,438c0-1.27,1.09-1.9,3.58-2.17,0-.75-.26-1.47-1.21-1.47a3.28,3.28,0,0,0-1.74.62l-.38-.67a4.18,4.18,0,0,1,2.29-.77c1.42,0,2,.95,2,2.4v3.58h-.81l-.09-.7h0a3.08,3.08,0,0,1-1.93.84A1.58,1.58,0,0,1,257.57,438Zm3.58.1v-1.62c-2,.23-2.62.71-2.62,1.45a.89.89,0,0,0,1,.94A2.45,2.45,0,0,0,261.15,438.05Z" transform="translate(1.64 0.02)"/><path class="cls-3" d="M264.89,438.87h0l-.1.6H264v-8.55h1v2.34l0,1.05a2.94,2.94,0,0,1,1.83-.82c1.51,0,2.32,1.17,2.32,3,0,2-1.2,3.15-2.53,3.15A2.62,2.62,0,0,1,264.89,438.87Zm3.17-2.4c0-1.28-.44-2.15-1.54-2.15a2.4,2.4,0,0,0-1.56.8v3.06a2.26,2.26,0,0,0,1.42.6C267.35,438.78,268.06,437.91,268.06,436.47Z" transform="translate(1.64 0.02)"/><path class="cls-3" d="M270.08,438c0-1.27,1.1-1.9,3.58-2.17,0-.75-.25-1.47-1.2-1.47a3.25,3.25,0,0,0-1.74.62l-.39-.67a4.24,4.24,0,0,1,2.29-.77c1.43,0,2,.95,2,2.4v3.58h-.82l-.08-.7h0a3.13,3.13,0,0,1-1.93.84A1.58,1.58,0,0,1,270.08,438Zm3.58.1v-1.62c-2,.23-2.61.71-2.61,1.45a.89.89,0,0,0,1,.94A2.42,2.42,0,0,0,273.66,438.05Z" transform="translate(1.64 0.02)"/><path class="cls-3" d="M275.84,438.8l.49-.65a2.62,2.62,0,0,0,1.72.69c.77,0,1.15-.4,1.15-.9s-.69-.87-1.34-1.11c-.81-.3-1.73-.7-1.73-1.68s.74-1.66,2-1.66a3,3,0,0,1,1.81.66l-.47.63a2.19,2.19,0,0,0-1.33-.52c-.74,0-1.08.39-1.08.84s.64.76,1.3,1c.84.32,1.78.66,1.78,1.77,0,.94-.75,1.73-2.13,1.73A3.51,3.51,0,0,1,275.84,438.8Z" transform="translate(1.64 0.02)"/><path class="cls-3" d="M281.09,436.56a2.81,2.81,0,0,1,2.62-3.07c1.48,0,2.32,1.07,2.32,2.74a4.18,4.18,0,0,1,0,.56h-3.93a1.94,1.94,0,0,0,1.94,2,2.51,2.51,0,0,0,1.45-.47l.35.65a3.45,3.45,0,0,1-1.92.6A2.78,2.78,0,0,1,281.09,436.56Zm4.07-.48c0-1.16-.52-1.8-1.44-1.8a1.79,1.79,0,0,0-1.67,1.8Z" transform="translate(1.64 0.02)"/><path class="cls-3" d="M287.11,435.54c0-2.54,1.49-4.09,3.49-4.09a3,3,0,0,1,2.16,1l-.55.66a2.1,2.1,0,0,0-1.59-.75c-1.49,0-2.48,1.22-2.48,3.18s.94,3.22,2.44,3.22a2.37,2.37,0,0,0,1.82-.88l.55.63a3,3,0,0,1-2.41,1.13C288.57,439.61,287.11,438.1,287.11,435.54Z" transform="translate(1.64 0.02)"/><path class="cls-3" d="M293.89,436.56a2.72,2.72,0,1,1,2.7,3.05A2.79,2.79,0,0,1,293.89,436.56Zm4.38,0c0-1.34-.68-2.24-1.68-2.24s-1.68.9-1.68,2.24.68,2.23,1.68,2.23S298.27,437.9,298.27,436.56Z" transform="translate(1.64 0.02)"/><path class="cls-3" d="M300.83,433.64h.81l.08.84h0a2.75,2.75,0,0,1,1.95-1c1.23,0,1.78.8,1.78,2.28v3.7h-1V435.9c0-1.08-.33-1.55-1.1-1.55-.6,0-1,.31-1.6.9v4.22h-1Z" transform="translate(1.64 0.02)"/><path class="cls-3" d="M307.56,437.67v-3.23h-.86v-.74l.91-.06.12-1.64h.82v1.64h1.58v.8h-1.58v3.24c0,.72.23,1.13.9,1.13a1.93,1.93,0,0,0,.67-.16l.19.75a3.57,3.57,0,0,1-1.09.21C308,439.61,307.56,438.83,307.56,437.67Z" transform="translate(1.64 0.02)"/><path class="cls-3" d="M311.45,433.64h.81l.08,1.06h0a2,2,0,0,1,1.66-1.21,1.49,1.49,0,0,1,.62.12l-.19.87a1.69,1.69,0,0,0-.56-.1c-.49,0-1.08.36-1.48,1.34v3.75h-1Z" transform="translate(1.64 0.02)"/><path class="cls-3" d="M315,438c0-1.27,1.1-1.9,3.58-2.17,0-.75-.25-1.47-1.2-1.47a3.25,3.25,0,0,0-1.74.62l-.39-.67a4.24,4.24,0,0,1,2.29-.77c1.43,0,2,.95,2,2.4v3.58h-.82l-.08-.7h0a3.13,3.13,0,0,1-1.93.84A1.58,1.58,0,0,1,315,438Zm3.58.1v-1.62c-2,.23-2.61.71-2.61,1.45a.89.89,0,0,0,1,.94A2.42,2.42,0,0,0,318.54,438.05Z" transform="translate(1.64 0.02)"/><path class="cls-3" d="M320.94,436.56a2.83,2.83,0,0,1,2.8-3.07,2.45,2.45,0,0,1,1.71.69l-.51.65a1.67,1.67,0,0,0-1.15-.51c-1.06,0-1.83.9-1.83,2.24s.73,2.23,1.8,2.23a2.13,2.13,0,0,0,1.37-.58l.43.66a2.84,2.84,0,0,1-1.89.74A2.74,2.74,0,0,1,320.94,436.56Z" transform="translate(1.64 0.02)"/><path class="cls-3" d="M326.9,437.67v-3.23H326v-.74l.91-.06.12-1.64h.82v1.64h1.58v.8h-1.58v3.24c0,.72.23,1.13.9,1.13a1.93,1.93,0,0,0,.67-.16l.19.75a3.57,3.57,0,0,1-1.08.21C327.32,439.61,326.9,438.83,326.9,437.67Z" transform="translate(1.64 0.02)"/><path class="cls-3" d="M201.8,395.21l.6-.69a3.05,3.05,0,0,0,2.17,1c1,0,1.64-.52,1.64-1.28s-.57-1.06-1.31-1.39l-1.13-.5a2.2,2.2,0,0,1-1.59-2,2.23,2.23,0,0,1,2.47-2.09,3.24,3.24,0,0,1,2.32,1l-.53.65a2.5,2.5,0,0,0-1.79-.74c-.88,0-1.46.44-1.46,1.15s.68,1,1.3,1.3l1.12.49a2.18,2.18,0,0,1,1.62,2.1c0,1.24-1,2.24-2.68,2.24A3.75,3.75,0,0,1,201.8,395.21Z" transform="translate(1.64 0.02)"/><path class="cls-3" d="M208.57,394.43v-3.22h-.87v-.75l.91-.06.12-1.63h.82v1.63h1.58v.81h-1.58v3.24c0,.71.23,1.12.91,1.12a1.92,1.92,0,0,0,.66-.15l.19.74a3.58,3.58,0,0,1-1.08.22C209,396.38,208.57,395.59,208.57,394.43Z" transform="translate(1.64 0.02)"/><path class="cls-3" d="M211.84,394.72c0-1.27,1.09-1.9,3.58-2.18,0-.75-.25-1.47-1.2-1.47a3.15,3.15,0,0,0-1.74.63l-.39-.68a4.32,4.32,0,0,1,2.29-.76c1.42,0,2,.95,2,2.4v3.57h-.82l-.08-.69h0a3.08,3.08,0,0,1-1.92.84A1.59,1.59,0,0,1,211.84,394.72Zm3.58.09v-1.62c-1.95.24-2.62.72-2.62,1.46s.45.93,1,.93A2.4,2.4,0,0,0,215.42,394.81Z" transform="translate(1.64 0.02)"/><path class="cls-3" d="M218.25,387.69h1v5.79h0l2.49-3.08h1.09l-2,2.35,2.21,3.48H222l-1.7-2.8-1.09,1.27v1.53h-1Z" transform="translate(1.64 0.02)"/><path class="cls-3" d="M224,388.57a.68.68,0,0,1,1.36,0,.68.68,0,0,1-1.36,0Zm.18,1.83h1v5.83h-1Z" transform="translate(1.64 0.02)"/><path class="cls-3" d="M227.14,390.4H228l.09.85h0a2.79,2.79,0,0,1,2-1c1.22,0,1.78.79,1.78,2.28v3.69h-1v-3.56c0-1.09-.33-1.55-1.1-1.55a2.18,2.18,0,0,0-1.59.89v4.22h-1Z" transform="translate(1.64 0.02)"/><path class="cls-3" d="M233.26,397.35a1.61,1.61,0,0,1,.86-1.31V396a1.09,1.09,0,0,1-.53-1,1.38,1.38,0,0,1,.65-1.08v-.05a2,2,0,0,1-.76-1.56,2.07,2.07,0,0,1,2.19-2.08,2.37,2.37,0,0,1,.82.14h2v.76h-1.2a1.73,1.73,0,0,1,.47,1.2,2,2,0,0,1-2.13,2,2,2,0,0,1-.87-.19.85.85,0,0,0-.37.69c0,.37.24.63,1,.63h1.13c1.36,0,2,.42,2,1.39s-1.15,2-3,2C234.25,398.92,233.26,398.36,233.26,397.35Zm4.4-.3c0-.54-.41-.72-1.18-.72h-1a3.47,3.47,0,0,1-.75-.09,1.2,1.2,0,0,0-.6,1c0,.63.63,1,1.69,1S237.66,397.66,237.66,397.05Zm-.75-4.71a1.25,1.25,0,1,0-2.48,0,1.25,1.25,0,1,0,2.48,0Z" transform="translate(1.64 0.02)"/><path class="cls-3" d="M239.39,392.31c0-2.54,1.49-4.09,3.49-4.09a2.92,2.92,0,0,1,2.16,1l-.54.65a2.16,2.16,0,0,0-1.6-.74c-1.49,0-2.48,1.22-2.48,3.18s1,3.22,2.44,3.22a2.35,2.35,0,0,0,1.82-.89l.55.63a3,3,0,0,1-2.41,1.14C240.86,396.38,239.39,394.86,239.39,392.31Z" transform="translate(1.64 0.02)"/><path class="cls-3" d="M246.17,393.33a2.72,2.72,0,1,1,2.7,3.05A2.79,2.79,0,0,1,246.17,393.33Zm4.38,0c0-1.34-.68-2.25-1.68-2.25s-1.68.91-1.68,2.25.68,2.23,1.68,2.23S250.55,394.66,250.55,393.33Z" transform="translate(1.64 0.02)"/><path class="cls-3" d="M253.11,390.4h.81l.08.85h0a2.75,2.75,0,0,1,2-1c1.23,0,1.78.79,1.78,2.28v3.69h-1v-3.56c0-1.09-.33-1.55-1.1-1.55a2.22,2.22,0,0,0-1.6.89v4.22h-1Z" transform="translate(1.64 0.02)"/><path class="cls-3" d="M259.84,394.43v-3.22H259v-.75l.91-.06.12-1.63h.82v1.63h1.58v.81h-1.58v3.24c0,.71.23,1.12.9,1.12a1.92,1.92,0,0,0,.67-.15l.19.74a3.58,3.58,0,0,1-1.09.22C260.26,396.38,259.84,395.59,259.84,394.43Z" transform="translate(1.64 0.02)"/><path class="cls-3" d="M263.73,390.4h.81l.08,1.07h0a2,2,0,0,1,1.66-1.21,1.35,1.35,0,0,1,.62.12l-.19.87a1.47,1.47,0,0,0-.56-.1c-.49,0-1.08.35-1.48,1.34v3.74h-1Z" transform="translate(1.64 0.02)"/><path class="cls-3" d="M267.24,394.72c0-1.27,1.1-1.9,3.58-2.18,0-.75-.25-1.47-1.2-1.47a3.18,3.18,0,0,0-1.74.63l-.39-.68a4.32,4.32,0,0,1,2.29-.76c1.43,0,2,.95,2,2.4v3.57H271l-.08-.69h0a3.13,3.13,0,0,1-1.93.84A1.59,1.59,0,0,1,267.24,394.72Zm3.58.09v-1.62c-1.95.24-2.61.72-2.61,1.46s.45.93,1,.93A2.38,2.38,0,0,0,270.82,394.81Z" transform="translate(1.64 0.02)"/><path class="cls-3" d="M273.22,393.33a2.83,2.83,0,0,1,2.8-3.07,2.49,2.49,0,0,1,1.71.68l-.51.66a1.66,1.66,0,0,0-1.15-.52c-1.06,0-1.83.91-1.83,2.25s.73,2.23,1.8,2.23a2.11,2.11,0,0,0,1.37-.58l.43.66a2.89,2.89,0,0,1-1.89.74A2.74,2.74,0,0,1,273.22,393.33Z" transform="translate(1.64 0.02)"/><path class="cls-3" d="M279.18,394.43v-3.22h-.87v-.75l.91-.06.12-1.63h.82v1.63h1.58v.81h-1.58v3.24c0,.71.23,1.12.9,1.12a1.92,1.92,0,0,0,.67-.15l.19.74a3.58,3.58,0,0,1-1.08.22C279.6,396.38,279.18,395.59,279.18,394.43Z" transform="translate(1.64 0.02)"/><path class="cls-2" d="M320.06,406.71V332.64c0-1.54-1.58-2.79-3.52-2.79H56.22a4,4,0,0,0-2.49.82,3.18,3.18,0,0,0-1,2c-.21,1.63-.35,32.31-.38,74.15" transform="translate(1.64 0.02)"/><line class="cls-2" x1="137.11" y1="330.38" x2="137.11" y2="371.74"/><line class="cls-2" x1="242.04" y1="330.38" x2="242.04" y2="371.74"/><polygon class="cls-3" points="53.89 411.02 52.57 408.68 51.25 406.34 53.94 406.36 56.63 406.39 55.26 408.71 53.89 411.02"/><polygon class="cls-3" points="137.13 374.64 135.81 372.3 134.48 369.95 137.17 369.98 139.86 370.01 138.5 372.32 137.13 374.64"/><polygon class="cls-3" points="241.98 374.94 240.66 372.6 239.33 370.25 242.02 370.28 244.71 370.31 243.35 372.62 241.98 374.94"/><polygon class="cls-3" points="321.77 411.07 320.44 408.72 319.12 406.38 321.81 406.41 324.5 406.43 323.13 408.75 321.77 411.07"/><path class="cls-2" d="M300.66,224.23V308a3.07,3.07,0,0,1-3,3.15H79.76a2.87,2.87,0,0,1-2.09-.93,4,4,0,0,1-.86-2.22c-.18-1.85-.3-36.53-.32-83.83" transform="translate(1.64 0.02)"/><line class="cls-2" x1="188.43" y1="271.15" x2="188.43" y2="312.51"/><polygon class="cls-3" points="75.35 224.22 76.68 221.88 78 219.54 79.37 221.85 80.73 224.17 78.04 224.2 75.35 224.22"/><polygon class="cls-3" points="185.76 271.33 187.08 268.99 188.41 266.64 189.77 268.96 191.14 271.28 188.45 271.3 185.76 271.33"/><polygon class="cls-3" points="299.65 224.33 300.98 221.99 302.3 219.64 303.67 221.96 305.03 224.28 302.34 224.3 299.65 224.33"/><rect class="cls-3" x="116.17" y="289.62" width="145.53" height="64" rx="4.85"/><path class="cls-4" d="M153.09,310.13v-6.61h2.08v6.77c0,2.57,1,3.41,2.39,3.41s2.43-.84,2.43-3.41v-6.77h2v6.61c0,3.87-1.71,5.38-4.44,5.38S153.09,314,153.09,310.13Z" transform="translate(1.64 0.02)"/><path class="cls-4" d="M164.75,306.45h1.7l.16,1.21h.06a3.82,3.82,0,0,1,2.71-1.42,2.4,2.4,0,0,1,2.45,1.58,4,4,0,0,1,2.84-1.58c1.87,0,2.73,1.28,2.73,3.51v5.55h-2.07V310c0-1.46-.44-2-1.37-2a2.74,2.74,0,0,0-1.85,1.1v6.18H170V310c0-1.46-.43-2-1.36-2a2.74,2.74,0,0,0-1.85,1.1v6.18h-2.08Z" transform="translate(1.64 0.02)"/><path class="cls-4" d="M179.34,310.88a4.37,4.37,0,0,1,4.44-4.64,3.82,3.82,0,0,1,2.59,1l-1,1.35a2.19,2.19,0,0,0-1.47-.65c-1.43,0-2.41,1.18-2.41,2.95s1,2.94,2.34,2.94a2.93,2.93,0,0,0,1.83-.76l.85,1.37a4.39,4.39,0,0,1-2.89,1.08C181.19,315.51,179.34,313.81,179.34,310.88Z" transform="translate(1.64 0.02)"/><path class="cls-4" d="M188.24,302.58h2.08v3.29l-.09,1.71a4.07,4.07,0,0,1,2.83-1.34c1.9,0,2.72,1.28,2.72,3.51v5.55h-2.07V310c0-1.46-.42-2-1.38-2a2.77,2.77,0,0,0-2,1.1v6.18h-2.08Z" transform="translate(1.64 0.02)"/><path class="cls-4" d="M197.81,312.92c0-1.89,1.57-2.88,5.2-3.27,0-.95-.41-1.74-1.6-1.74a4.86,4.86,0,0,0-2.49.87l-.76-1.38a6.8,6.8,0,0,1,3.63-1.16c2.21,0,3.3,1.36,3.3,3.82v5.24h-1.7l-.16-1h-.06a4.25,4.25,0,0,1-2.74,1.19A2.48,2.48,0,0,1,197.81,312.92Zm5.2,0v-2c-2.4.3-3.2.93-3.2,1.82s.54,1.13,1.28,1.13A2.8,2.8,0,0,0,203,312.93Z" transform="translate(1.64 0.02)"/><path class="cls-4" d="M207.34,303.73a1.29,1.29,0,0,1,2.56,0,1.28,1.28,0,0,1-2.56,0Zm.23,2.72h2.08v8.85h-2.08Z" transform="translate(1.64 0.02)"/><path class="cls-4" d="M212.29,306.45H214l.16,1.2h.06a4.12,4.12,0,0,1,2.9-1.41c1.89,0,2.72,1.28,2.72,3.51v5.55h-2.07V310c0-1.46-.42-2-1.38-2a2.79,2.79,0,0,0-2,1.1v6.18h-2.07Z" transform="translate(1.64 0.02)"/><path class="cls-4" d="M148.76,325.12h7.09v1.76h-5v3h4.23v1.76h-4.23v3.48H156v1.76h-7.27Z" transform="translate(1.64 0.02)"/><path class="cls-4" d="M157.5,332.48a4.37,4.37,0,0,1,4.44-4.64,3.78,3.78,0,0,1,2.58,1l-1,1.35a2.14,2.14,0,0,0-1.46-.65c-1.43,0-2.42,1.18-2.42,3s1,2.94,2.35,2.94a2.93,2.93,0,0,0,1.83-.76l.84,1.37a4.39,4.39,0,0,1-2.89,1.08C159.35,337.11,157.5,335.42,157.5,332.48Z" transform="translate(1.64 0.02)"/><path class="cls-4" d="M165.38,332.48a4.23,4.23,0,1,1,4.21,4.63A4.29,4.29,0,0,1,165.38,332.48Zm6.29,0c0-1.77-.78-3-2.08-3s-2.07,1.18-2.07,3,.77,2.94,2.07,2.94S171.67,334.25,171.67,332.48Z" transform="translate(1.64 0.02)"/><path class="cls-4" d="M174.9,335.88l1-1.32a3.89,3.89,0,0,0,2.45,1c1,0,1.42-.45,1.42-1.06s-1-1.07-1.91-1.43c-1.16-.44-2.48-1.1-2.48-2.58s1.24-2.64,3.22-2.64a4.76,4.76,0,0,1,2.94,1.06l-.95,1.27a3.35,3.35,0,0,0-1.94-.77c-.89,0-1.31.43-1.31,1s.89,1,1.85,1.32c1.19.44,2.53,1,2.53,2.67s-1.2,2.74-3.43,2.74A5.48,5.48,0,0,1,174.9,335.88Z" transform="translate(1.64 0.02)"/><path class="cls-4" d="M183,340.35l.38-1.61a2.43,2.43,0,0,0,.63.12,1.87,1.87,0,0,0,1.77-1.52l.16-.55-3.48-8.74h2.11l1.52,4.34c.27.78.52,1.66.78,2.5h.07c.23-.82.45-1.69.68-2.5l1.32-4.34h2l-3.2,9.25c-.73,2-1.66,3.23-3.59,3.23A3.38,3.38,0,0,1,183,340.35Z" transform="translate(1.64 0.02)"/><path class="cls-4" d="M191.57,335.88l1-1.32a3.88,3.88,0,0,0,2.44,1c1,0,1.42-.45,1.42-1.06s-1-1.07-1.9-1.43c-1.16-.44-2.48-1.1-2.48-2.58s1.24-2.64,3.22-2.64a4.73,4.73,0,0,1,2.93,1.06l-.95,1.27a3.32,3.32,0,0,0-1.93-.77c-.89,0-1.31.43-1.31,1s.89,1,1.85,1.32c1.19.44,2.53,1,2.53,2.67s-1.2,2.74-3.43,2.74A5.48,5.48,0,0,1,191.57,335.88Z" transform="translate(1.64 0.02)"/><path class="cls-4" d="M200.15,333.92V329.7h-1.26v-1.55l1.37-.1.25-2.41h1.72v2.41h2.25v1.65h-2.25v4.21c0,1,.4,1.55,1.25,1.55a2.8,2.8,0,0,0,.92-.2l.36,1.53a5.75,5.75,0,0,1-1.81.32C200.91,337.11,200.15,335.83,200.15,333.92Z" transform="translate(1.64 0.02)"/><path class="cls-4" d="M205.47,332.48c0-2.87,2-4.64,4.08-4.64,2.39,0,3.65,1.73,3.65,4.2a5,5,0,0,1-.09,1h-5.62a2.52,2.52,0,0,0,2.61,2.47,3.76,3.76,0,0,0,2.05-.64l.71,1.29a5.47,5.47,0,0,1-3,.95A4.27,4.27,0,0,1,205.47,332.48Zm5.94-.85c0-1.36-.61-2.19-1.82-2.19a2.22,2.22,0,0,0-2.12,2.19Z" transform="translate(1.64 0.02)"/><path class="cls-4" d="M215.18,328.05h1.7l.16,1.21h.06a3.78,3.78,0,0,1,2.71-1.42,2.38,2.38,0,0,1,2.44,1.58,4,4,0,0,1,2.85-1.58c1.86,0,2.73,1.28,2.73,3.51v5.55h-2.08v-5.28c0-1.46-.43-2-1.36-2a2.72,2.72,0,0,0-1.85,1.1v6.18h-2.07v-5.28c0-1.46-.44-2-1.36-2a2.78,2.78,0,0,0-1.86,1.1v6.18h-2.07Z" transform="translate(1.64 0.02)"/></g></svg>