<svg width="17" height="17" viewBox="0 0 17 17" fill="none" xmlns="http://www.w3.org/2000/svg">
<path fill-rule="evenodd" clip-rule="evenodd" d="M8.17462 0C8.58883 0 8.92462 0.335802 8.92462 0.750035V7.42497H15.5992C16.0135 7.42497 16.3492 7.76077 16.3492 8.175C16.3492 8.58923 16.0135 8.92504 15.5992 8.92504H8.92462V15.6C8.92462 16.0142 8.58883 16.35 8.17462 16.35C7.76041 16.35 7.42462 16.0142 7.42462 15.6V8.92504H0.75C0.335786 8.92504 0 8.58923 0 8.175C0 7.76077 0.335786 7.42497 0.75 7.42497H7.42462V0.750035C7.42462 0.335802 7.76041 0 8.17462 0Z" fill="#232324"/>
</svg>
