<svg width="98" height="104" viewBox="0 0 98 104" fill="none" xmlns="http://www.w3.org/2000/svg">
<rect x="21" y="8" width="21" height="20" transform="rotate(90 21 8)" stroke="#2A2A2A" stroke-width="2"/>
<rect x="21" y="42" width="20" height="20" transform="rotate(90 21 42)" stroke="#2A2A2A" stroke-width="2"/>
<rect x="21" y="75" width="21" height="20" transform="rotate(90 21 75)" stroke="#2A2A2A" stroke-width="2"/>
<line x1="11" y1="-4.37114e-08" x2="11" y2="7" stroke="black" stroke-width="2"/>
<line x1="11" y1="30" x2="11" y2="41" stroke="black" stroke-width="2"/>
<line x1="11" y1="63" x2="11" y2="74" stroke="black" stroke-width="2"/>
<line x1="11" y1="97" x2="11" y2="104" stroke="black" stroke-width="2"/>
<rect x="59" y="8" width="21" height="20" transform="rotate(90 59 8)" stroke="#2A2A2A" stroke-width="2"/>
<rect x="60" y="41" width="22" height="22" transform="rotate(90 60 41)" fill="#ED0474"/>
<rect x="59" y="75" width="21" height="20" transform="rotate(90 59 75)" stroke="#2A2A2A" stroke-width="2"/>
<line x1="49" y1="-4.37114e-08" x2="49" y2="7" stroke="black" stroke-width="2"/>
<line x1="49" y1="30" x2="49" y2="41" stroke="black" stroke-width="2"/>
<line x1="49" y1="63" x2="49" y2="74" stroke="black" stroke-width="2"/>
<line x1="49" y1="97" x2="49" y2="104" stroke="black" stroke-width="2"/>
<rect x="97" y="8" width="21" height="20" transform="rotate(90 97 8)" stroke="#2A2A2A" stroke-width="2"/>
<rect x="97" y="42" width="20" height="20" transform="rotate(90 97 42)" stroke="#2A2A2A" stroke-width="2"/>
<rect x="97" y="75" width="21" height="20" transform="rotate(90 97 75)" stroke="#2A2A2A" stroke-width="2"/>
<line x1="87" y1="-4.37114e-08" x2="87" y2="7" stroke="black" stroke-width="2"/>
<line x1="87" y1="30" x2="87" y2="41" stroke="black" stroke-width="2"/>
<line x1="87" y1="63" x2="87" y2="74" stroke="black" stroke-width="2"/>
<line x1="87" y1="97" x2="87" y2="104" stroke="black" stroke-width="2"/>
</svg>
