<svg width="83" height="83" viewBox="0 0 83 83" fill="none" xmlns="http://www.w3.org/2000/svg">
<circle cx="41.5" cy="41.5" r="40" stroke="#4264EE" stroke-width="3"/>
<path fill-rule="evenodd" clip-rule="evenodd" d="M28.5966 18H41.8485L45.7848 25.13L38.8146 37.843H30.3213L37.0497 25.5119H32.7919L22.0549 45L17 38.9156L28.5966 18Z" fill="url(#paint0_linear)"/>
<path fill-rule="evenodd" clip-rule="evenodd" d="M69.9973 44.1034L63.319 55.3527L55.1406 55.3527L47.7677 42.9102L51.5975 35.5664L59.2519 47.6129L61.4157 43.9343L50.8046 25.7901L59.0975 25.5664L69.9973 44.1034Z" fill="url(#paint1_linear)"/>
<path fill-rule="evenodd" clip-rule="evenodd" d="M28.0084 66.7929L21.0631 55.4702L25.054 48.3934L39.5547 48.3934L44.0442 55.658L29.9564 55.658L32.1879 59.2959L52.7753 59.2286L50.2584 66.7166L28.0084 66.7929Z" fill="url(#paint2_linear)"/>
<path fill-rule="evenodd" clip-rule="evenodd" d="M45.3168 42.6819L50.2824 33.4897L46.8407 28.4946L40.2247 40.7022H29.2075L26.4948 46.1278H41.124L46.9257 55.5465L53 55.4999L45.3168 42.6819Z" fill="#4264EE"/>
<defs>
<linearGradient id="paint0_linear" x1="42.5" y1="15.5" x2="23.411" y2="50.4514" gradientUnits="userSpaceOnUse">
<stop stop-color="white"/>
<stop offset="1" stop-color="white" stop-opacity="0"/>
</linearGradient>
<linearGradient id="paint1_linear" x1="68.5" y1="53.9998" x2="48" y2="21.9998" gradientUnits="userSpaceOnUse">
<stop stop-color="white"/>
<stop offset="1" stop-color="white" stop-opacity="0"/>
</linearGradient>
<linearGradient id="paint2_linear" x1="19" y1="56.0002" x2="58.5" y2="56.5002" gradientUnits="userSpaceOnUse">
<stop stop-color="white"/>
<stop offset="1" stop-color="white" stop-opacity="0"/>
</linearGradient>
</defs>
</svg>
