<svg width="530" height="354" viewBox="0 0 530 354" fill="none" xmlns="http://www.w3.org/2000/svg">
<path fill-rule="evenodd" clip-rule="evenodd" d="M92.6331 148.885L178.226 198.656V300.037L92.6326 348.43L0 300.064V198.629L92.6331 148.885ZM2.37635 200.05V297.356L91.4219 249.451V152.233L2.37635 200.05ZM93.7982 152.312V249.478L175.85 297.277V200.023L93.7982 152.312ZM174.651 299.329L92.5869 251.523L3.72527 299.328L92.5875 345.726L174.651 299.329Z" fill="#2A2A2A"/>
<path fill-rule="evenodd" clip-rule="evenodd" d="M177.033 0L263.653 49.779V151.165L177.033 200.072L91.9219 151.159V49.7851L177.033 0ZM175.85 3.44496L94.2982 51.1481V148.398L175.85 100.607V3.44496ZM177.044 102.662L95.4772 150.461L177.044 197.337L260.066 150.461L177.044 102.662ZM261.277 148.416L178.226 100.601V3.42665L261.277 51.1542V148.416Z" fill="#2A2A2A"/>
<path fill-rule="evenodd" clip-rule="evenodd" d="M352.906 0.0131836L439.503 49.7788V151.165L352.906 200.059L260.777 151.186V49.7576L352.906 0.0131836ZM263.154 51.1752V148.477L351.7 100.58V3.36509L263.154 51.1752ZM354.076 3.42645V100.601L437.127 148.416V51.154L354.076 3.42645ZM435.916 150.461L352.87 102.648L264.482 150.461L352.87 197.35L435.916 150.461Z" fill="#2A2A2A"/>
<path fill-rule="evenodd" clip-rule="evenodd" d="M262.226 148.885L354.077 198.632V300.027L262.225 353.459L175.851 300.006V198.653L262.226 148.885ZM261.056 152.302L178.227 200.026V297.288L261.056 249.564V152.302ZM262.262 251.612L179.356 299.38L262.263 350.688L350.462 299.381L262.262 251.612ZM351.7 297.349L263.432 249.543V152.241L351.7 200.047V297.349Z" fill="#2A2A2A"/>
<path fill-rule="evenodd" clip-rule="evenodd" d="M438.075 148.885L529.925 198.632V300.027L438.074 353.459L351.699 300.006V198.653L438.075 148.885ZM436.905 152.302L354.076 200.026V297.288L436.905 249.564V152.302ZM438.111 251.612L355.204 299.38L438.112 350.688L526.311 299.381L438.111 251.612ZM527.549 297.349L439.281 249.543V152.241L527.549 200.047V297.349Z" fill="#2A2A2A"/>
</svg>
