<svg width="486" height="178" viewBox="0 0 486 178" fill="none" xmlns="http://www.w3.org/2000/svg">
<path fill-rule="evenodd" clip-rule="evenodd" d="M486 0.376953C470.65 7.3701 452.729 12.9449 429.5 16.4895C394.693 21.8006 367.195 23.2086 341.838 24.5069L341.838 24.507C332.65 24.9774 323.743 25.4335 314.871 26.0557C281.517 28.3948 248.869 33.0797 204.203 49.7169C159.522 66.3593 108.647 97.8223 69.0016 125.067C49.1652 138.699 32.1143 151.293 20.0219 160.479C13.9754 165.073 9.16782 168.815 5.87078 171.41C4.22224 172.707 2.95128 173.718 2.09185 174.404C1.66213 174.748 1.33528 175.01 1.11556 175.187C1.00569 175.275 0.922612 175.342 0.866837 175.387L0.803722 175.438L0.787652 175.451L0.78351 175.455C0.782523 175.455 0.781971 175.456 1.72616 176.621C2.67034 177.787 2.67066 177.787 2.67141 177.786L2.67508 177.783L2.69021 177.771L2.75141 177.721C2.8059 177.677 2.88769 177.611 2.99624 177.524C3.21334 177.349 3.5375 177.089 3.96447 176.748C4.81841 176.066 6.08359 175.06 7.72606 173.767C11.0111 171.182 15.8051 167.45 21.8367 162.868C33.9005 153.704 50.9121 141.139 70.7007 127.539C110.306 100.322 160.93 69.036 205.25 52.5282C249.583 36.0151 281.936 31.3728 315.081 29.0483C323.866 28.4322 332.722 27.9788 341.879 27.5099C367.271 26.2098 394.984 24.7909 429.952 19.4551C452.869 15.9583 470.711 10.4969 486 3.66804V0.376953Z" fill="#ED0474"/>
</svg>
