<svg width="40" height="40" viewBox="0 0 40 40" fill="none" xmlns="http://www.w3.org/2000/svg">
<path d="M40 20C40 31.0457 31.0457 40 20 40C8.9543 40 0 31.0457 0 20C0 8.9543 8.9543 0 20 0C31.0457 0 40 8.9543 40 20Z" fill="#6DCC7A"/>
<path fill-rule="evenodd" clip-rule="evenodd" d="M8 14C8 12.3431 9.34315 11 11 11H30C31.6569 11 33 12.3431 33 14V27C33 28.6569 31.6569 30 30 30H24.5C23.9477 30 23.5 29.5523 23.5 29C23.5 28.4477 23.9477 28 24.5 28H30C30.5523 28 31 27.5523 31 27V14C31 13.4477 30.5523 13 30 13H11C10.4477 13 10 13.4477 10 14V25C10 25.5523 9.55228 26 9 26C8.44772 26 8 25.5523 8 25V14Z" fill="white"/>
<path fill-rule="evenodd" clip-rule="evenodd" d="M31 18H9V16H31V18Z" fill="white"/>
<path fill-rule="evenodd" clip-rule="evenodd" d="M17 22H13V20H17V22Z" fill="white"/>
<path fill-rule="evenodd" clip-rule="evenodd" d="M8 29C8 28.4477 8.44772 28 9 28H20C20.5523 28 21 28.4477 21 29C21 29.5523 20.5523 30 20 30H9C8.44772 30 8 29.5523 8 29Z" fill="white"/>
<path fill-rule="evenodd" clip-rule="evenodd" d="M18.4186 26.3475C18.7789 25.9289 19.4103 25.8817 19.8288 26.242L21.9762 28.0904C22.5324 28.5692 22.5324 29.4306 21.9762 29.9094L19.8289 31.7578C19.4104 32.1181 18.7789 32.0708 18.4186 31.6523C18.0583 31.2337 18.1056 30.6023 18.5241 30.242L19.9671 28.9999L18.5241 27.7578C18.1055 27.3975 18.0583 26.7661 18.4186 26.3475Z" fill="white"/>
</svg>
