<svg width="17" height="17" viewBox="0 0 17 17" fill="none" xmlns="http://www.w3.org/2000/svg">
<path fill-rule="evenodd" clip-rule="evenodd" d="M8.48517 0.0754395C8.89938 0.0754395 9.23517 0.411226 9.23517 0.825439V7.50006H15.9098C16.324 7.50006 16.6598 7.83585 16.6598 8.25006C16.6598 8.66427 16.324 9.00006 15.9098 9.00006H9.23517V15.6747C9.23517 16.0889 8.89938 16.4247 8.48517 16.4247C8.07095 16.4247 7.73517 16.0889 7.73517 15.6747V9.00006H1.06055C0.646333 9.00006 0.310547 8.66427 0.310547 8.25006C0.310547 7.83585 0.646333 7.50006 1.06055 7.50006H7.73517V0.825439C7.73517 0.411226 8.07095 0.0754395 8.48517 0.0754395Z" fill="white"/>
</svg>
