<svg width="16" height="16" viewBox="0 0 16 16" fill="none" xmlns="http://www.w3.org/2000/svg">
<path fill-rule="evenodd" clip-rule="evenodd" d="M8 0C8.40537 0 8.73398 0.328614 8.73398 0.733979V7.26602H15.266C15.6714 7.26602 16 7.59463 16 8C16 8.40537 15.6714 8.73398 15.266 8.73398H8.73398V15.266C8.73398 15.6714 8.40537 16 8 16C7.59463 16 7.26602 15.6714 7.26602 15.266V8.73398H0.733979C0.328614 8.73398 0 8.40537 0 8C0 7.59463 0.328614 7.26602 0.733979 7.26602H7.26602V0.733979C7.26602 0.328614 7.59463 0 8 0Z" fill="white"/>
</svg>
