<svg width="41" height="36" viewBox="0 0 41 36" fill="none" xmlns="http://www.w3.org/2000/svg">
<path fill-rule="evenodd" clip-rule="evenodd" d="M33.3213 5.19966L32.0447 5.80826L31.3335 6.14735L29.725 5.3431C28.9803 5.0908 28.1365 4.95236 27.1909 4.95236C23.697 4.95236 20.8001 7.50917 20.2694 10.8538C20.2694 10.8538 20.1825 11.7815 20.1825 11.9608C20.1825 12.7306 20.2694 13.2317 20.4679 13.8254C20.4679 13.8254 20.792 14.7297 20.1825 15.5858C19.7445 16.0436 18.9387 16.1103 18.4461 16.0436C10.773 15.0029 6.74848 10.2655 4.73263 7.35532C4.51839 7.74509 4.35437 8.24185 4.3037 8.82716C4.20011 10.0239 4.62124 11.1917 5.69938 11.9042C7 13 7 14.4017 5.12399 15.0454C4.83986 15.1085 4.50447 15.1822 4.15402 15.2525C4.52372 15.6265 4.99427 16.0085 5.5632 16.3935C6.77871 17.2159 8.14743 17.8595 9.21563 18.3619C9.31319 18.4078 9.40826 18.4525 9.50047 18.496C10.4809 18.9591 10.9263 20.3907 9.93758 21.306C9.52267 21.6901 8.90042 22.0264 8.34831 22.2864C8.68564 22.4515 9.06431 22.6134 9.47562 22.7695C11.0199 23.3555 12.8062 23.7782 14.0434 23.9962C15.3359 24.224 16.0181 25.8736 14.9591 26.9202C13.4095 28.4518 10.8525 29.2112 8.60399 29.6171C7.83963 29.7551 7.06724 29.8594 6.31691 29.9362C9.15471 31.7334 12.5181 32.7729 16.126 32.7729C26.2664 32.7729 34.4868 24.5526 34.4868 14.4122C34.4868 13.7384 34.3143 12.3573 34.3143 11.8842C34.3143 11.6213 34.3244 11.268 34.3333 11.0059C34.3413 10.7726 34.4326 10.5504 34.5893 10.3774L34.7642 10.1841L35.4146 9.46556L33.8129 9.42714C33.3213 9.42714 32 7.5 32.3652 6.82061L33.3213 5.19966ZM37.574 11.9425V11.8888L40.002 9.20629C40.9949 8.10942 40.2408 6.35332 38.7618 6.31784L36.4411 6.26218L38.5921 2.61508C39.4588 1.14564 37.899 -0.557845 36.3591 0.176321L31.4135 2.53413C31.2737 2.47527 31.1322 2.41959 30.9889 2.36711L30.9194 2.33233L30.9153 2.34046C29.7723 1.93202 28.522 1.72528 27.1909 1.72528C22.0645 1.72528 17.8183 5.49407 17.0718 10.4121H17.059C17.059 10.4441 17.0582 10.4785 17.0566 10.5158C17.0129 10.8256 16.983 11.1398 16.9676 11.4579C16.9571 11.5625 16.9473 11.6697 16.9393 11.7739C16.9246 11.9656 16.9102 12.2026 16.9154 12.4649C10.8784 10.9217 7.90462 6.34322 6.46245 4.12267C5.99492 3.40572 5.09169 3.15529 4.3346 3.48253C2.35311 4.339 1.26431 6.51946 1.08865 8.54887C0.982593 9.77409 1.5 11.5 2.5 12.4649C1.99682 12.445 0.853878 12.4718 0.529276 12.7863C0.165181 13.1391 -0.107139 13.7283 0.0412983 14.4017C0.506522 16.5123 2.2374 18.0396 3.75482 19.0662C4.27557 19.4186 4.81678 19.7414 5.34511 20.0332C5.19831 20.0865 5.06085 20.1348 4.93766 20.1767C4.08203 20.4679 3.48193 21.4636 3.89862 22.467C4.28579 23.3993 5.06871 24.0702 5.78881 24.5423C6.54306 25.0367 7.43861 25.4481 8.3307 25.7867C8.67257 25.9164 9.022 26.0384 9.37316 26.1526C8.95154 26.2596 8.50272 26.3562 8.03064 26.4414C5.94443 26.8181 3.74709 26.9164 2.28091 26.8888C0.756893 26.86 -0.110084 28.7299 1.039 29.8529C4.92913 33.6544 10.2553 36 16.126 36C28.0487 36 37.7138 26.3348 37.7138 14.4122C37.7138 13.5776 37.6664 12.7535 37.574 11.9425Z" fill="white"/>
</svg>
